<?xml version="1.0" encoding="UTF-8"?>
<svg version="1.1" xmlns="http://www.w3.org/2000/svg" width="322" height="260">
<path d="M0 0 C106.26 0 212.52 0 322 0 C322 85.8 322 171.6 322 260 C215.74 260 109.48 260 0 260 C0 174.2 0 88.4 0 0 Z " fill="#040A18" transform="translate(0,0)"/>
<path d="M0 0 C1.34916504 -0.01913956 1.34916504 -0.01913956 2.72558594 -0.03866577 C4.18786621 -0.04200424 4.18786621 -0.04200424 5.6796875 -0.04541016 C7.20384277 -0.05539536 7.20384277 -0.05539536 8.75878906 -0.06558228 C10.92088005 -0.07572431 13.08300244 -0.08039882 15.24511719 -0.08007812 C18.48689068 -0.08438263 21.72722392 -0.1204916 24.96875 -0.15869141 C45.41102435 -0.27040694 67.59745429 1.842504 83.99609375 15.27880859 C85.60815311 16.56227449 85.60815311 16.56227449 88.1171875 15.97802734 C89.9816914 14.68721695 91.79178716 13.31749164 93.57421875 11.91552734 C97.94296972 8.7998598 102.59922132 7.21880924 107.6796875 5.60302734 C108.60966553 5.30195068 109.53964355 5.00087402 110.49780273 4.69067383 C121.56276644 1.20866536 131.96386005 -0.08539138 143.5546875 0.29052734 C139.77956672 6.7977926 136.36995921 12.19188889 128.82421875 14.36474609 C124.75798195 15.15543027 120.65435321 15.70368831 116.5546875 16.29052734 C109.30564783 17.77978583 103.9020732 20.68145448 97.8046875 24.86474609 C95.5546875 26.29052734 95.5546875 26.29052734 93.5546875 26.29052734 C93.57152588 27.15218506 93.58836426 28.01384277 93.60571289 28.90161133 C93.64725484 32.13992596 93.64782399 35.37510196 93.62182617 38.61352539 C93.61876895 40.00713755 93.63141905 41.40088556 93.66088867 42.79418945 C93.88963563 54.38542181 93.88963563 54.38542181 90.51513672 59.20117188 C88.29149391 61.40014181 85.99732889 63.34399697 83.5546875 65.29052734 C83.2246875 65.95052734 82.8946875 66.61052734 82.5546875 67.29052734 C81.8946875 67.29052734 81.2346875 67.29052734 80.5546875 67.29052734 C80.57152588 66.11022949 80.58836426 64.92993164 80.60571289 63.71386719 C80.65649023 59.31880945 80.64794762 54.92549146 80.62182617 50.53027344 C80.61875105 48.63114275 80.63159162 46.731915 80.66088867 44.83300781 C81.28227254 34.26265352 81.28227254 34.26265352 77.69091797 24.78369141 C75.35307583 23.19766634 73.21513625 22.21736086 70.5546875 21.29052734 C69.61109375 20.72591797 68.6675 20.16130859 67.6953125 19.57958984 C63.02764928 17.66375792 58.2335562 16.69316792 53.3046875 15.66552734 C52.31855469 15.44896484 51.33242187 15.23240234 50.31640625 15.00927734 C33.97779083 11.52198393 18.58563064 12.29052734 1.5546875 12.29052734 C1.2246875 61.46052734 0.8946875 110.63052734 0.5546875 161.29052734 C11.7746875 161.29052734 22.9946875 161.29052734 34.5546875 161.29052734 C40.48108944 161.7523249 45.80396491 162.19901275 51.5546875 163.29052734 C52.22016602 163.41411621 52.88564453 163.53770508 53.57128906 163.66503906 C63.66852548 165.61591027 71.63083299 169.25836138 80.5546875 174.29052734 C80.51279297 173.10499268 80.47089844 171.91945801 80.42773438 170.69799805 C80.28271306 166.29093928 80.19101862 161.88409003 80.11523438 157.4753418 C80.07505088 155.56905637 80.02049063 153.6630168 79.95117188 151.75756836 C79.85387829 149.01403243 79.80871546 146.27375712 79.7734375 143.52880859 C79.73214722 142.67966385 79.69085693 141.8305191 79.64831543 140.9556427 C79.64645376 138.48947199 79.72692167 136.61713649 80.5546875 134.29052734 C82.47512897 132.57246319 84.32251498 131.47639513 86.63684082 130.35246277 C88.87773038 129.30343967 88.87773038 129.30343967 90.5546875 126.29052734 C91.2146875 126.29052734 91.8746875 126.29052734 92.5546875 126.29052734 C92.5546875 142.13052734 92.5546875 157.97052734 92.5546875 174.29052734 C97.8346875 171.65052734 103.1146875 169.01052734 108.5546875 166.29052734 C112.56338347 164.68704896 115.44717512 163.84293623 119.6171875 163.22802734 C120.63941406 163.07205078 121.66164062 162.91607422 122.71484375 162.75537109 C133.94494304 161.39587789 145.01223445 161.16500081 156.3046875 161.22802734 C157.88801941 161.23305637 159.47135287 161.23761678 161.0546875 161.24169922 C164.88806022 161.25258453 168.72135604 161.26977038 172.5546875 161.29052734 C172.54358444 160.07387894 172.53248138 158.85723053 172.52104187 157.60371399 C172.41971113 146.1414772 172.34474361 134.6793312 172.29562664 123.21674824 C172.26952614 117.32358962 172.23411888 111.43079241 172.17749023 105.5378418 C172.12318803 99.85144178 172.09327038 94.16538951 172.08030128 88.47875023 C172.07105829 86.30857048 172.05300888 84.13840989 172.02603722 81.96837807 C171.98977156 78.92991544 171.98474123 75.89289206 171.98706055 72.85424805 C171.96009598 71.50665405 171.96009598 71.50665405 171.93258667 70.13183594 C171.96707306 65.96004443 172.04897915 63.94683043 174.65266418 60.5677948 C175.61033188 59.81629654 176.56799957 59.06479828 177.5546875 58.29052734 C178.82890141 57.1902636 180.09966615 56.08599441 181.3671875 54.97802734 C182.42793709 54.08012204 183.48981895 53.18354391 184.5546875 52.29052734 C184.64820052 66.92020724 184.71870073 81.54984749 184.76193619 96.1797657 C184.78254634 102.97297288 184.81063697 109.76599418 184.85644531 116.55908203 C184.90062834 123.11427997 184.92382293 129.66935728 184.93419647 136.22469711 C184.94158954 138.72616491 184.95602632 141.2276221 184.97760773 143.72900772 C185.00662723 147.23168057 185.01064395 150.73355448 185.00878906 154.23632812 C185.02317017 155.27138992 185.03755127 156.30645172 185.05236816 157.37287903 C185.01922429 163.15366291 184.63008944 166.82532042 180.5546875 171.29052734 C177.74955162 173.21861789 175.50948067 173.54523929 172.14428711 173.57763672 C171.27916 173.59105103 170.4140329 173.60446533 169.52268982 173.61828613 C168.59352249 173.62356323 167.66435516 173.62884033 166.70703125 173.63427734 C165.73995743 173.64890015 164.77288361 173.66352295 163.77650452 173.67858887 C160.68177441 173.72505755 157.58710597 173.75923393 154.4921875 173.79052734 C150.43857699 173.8320112 146.38539185 173.88590934 142.33203125 173.94677734 C141.41703354 173.95205444 140.50203583 173.95733154 139.55931091 173.96276855 C123.44900211 174.2063557 109.28149333 178.75327617 96.14770508 187.98779297 C91.8245456 190.92281252 88.94171392 192.07161518 83.5546875 191.29052734 C80.5625 189.93505859 80.5625 189.93505859 77.6796875 188.10302734 C76.11347656 187.14396484 76.11347656 187.14396484 74.515625 186.16552734 C72.78600373 185.07025266 71.0601118 183.96896576 69.34375 182.85302734 C62.30062714 178.53540414 54.54186911 177.02391569 46.5546875 175.29052734 C45.86342773 175.11271729 45.17216797 174.93490723 44.45996094 174.75170898 C40.11266085 174.06162076 35.79351126 174.13415822 31.3984375 174.11474609 C29.38670816 174.09155848 27.37498936 174.06744159 25.36328125 174.04248047 C22.20321472 174.00731397 19.04353962 173.97798014 15.88330078 173.96459961 C12.82537105 173.94913148 9.76856924 173.90894506 6.7109375 173.86474609 C5.76810913 173.86665451 4.82528076 173.86856293 3.85388184 173.87052917 C-0.22075317 173.79455315 -2.79634506 173.6562435 -6.39257812 171.62963867 C-10.46566733 166.98831283 -11.81982577 162.84643614 -11.83299255 156.72497559 C-11.84289719 155.42120468 -11.85280182 154.11743378 -11.86300659 152.77415466 C-11.85876906 151.34146023 -11.85421126 149.90876672 -11.84936523 148.47607422 C-11.85507135 146.95784503 -11.86203654 145.43962014 -11.87016296 143.92140198 C-11.88808146 139.80778719 -11.88692867 135.69438586 -11.88122058 131.58074379 C-11.8781273 128.14378372 -11.88422261 124.70686457 -11.89025933 121.26991034 C-11.90429819 113.16135082 -11.90274816 105.05289667 -11.89135742 96.94433594 C-11.8798722 88.58383719 -11.89396001 80.22365908 -11.9207539 71.86320257 C-11.94291407 64.67916021 -11.9495477 57.49521847 -11.94367748 50.31114435 C-11.94030801 46.02297948 -11.94272247 41.73502023 -11.95992851 37.44688416 C-11.97540111 33.41497047 -11.97143898 29.38353183 -11.95262337 25.35163689 C-11.94893855 23.87382536 -11.95204292 22.3959786 -11.96250916 20.91819954 C-11.97572559 18.89752892 -11.96175943 16.87673546 -11.94651794 14.8560791 C-11.94630866 13.72637947 -11.94609938 12.59667984 -11.94588375 11.43274689 C-11.32383671 7.52799132 -9.88866256 5.36673807 -7.4453125 2.29052734 C-4.31509784 0.20371757 -3.56764655 0.034483 0 0 Z " fill="#A6D8EE" transform="translate(68.4453125,29.70947265625)"/>
<path d="M0 0 C3.85853832 0.26920035 5.68095686 0.73289412 8.6875 3.25 C12.6843158 8.00297014 14.37457811 11.08221379 14.38095093 17.36936951 C14.3894104 18.65493744 14.39786987 19.94050537 14.40658569 21.26502991 C14.40075324 22.68246587 14.39460876 24.09990058 14.38818359 25.51733398 C14.39225039 27.01571027 14.39759289 28.51408356 14.40411377 30.01245117 C14.41778155 34.07655283 14.41249069 38.14042581 14.40297651 42.20453143 C14.39537571 46.46050296 14.40242683 50.71645506 14.40713501 54.97242737 C14.41259193 62.12040721 14.40540325 69.26829405 14.39111328 76.41625977 C14.37479311 84.67501391 14.38007088 92.93354579 14.3965925 101.19229454 C14.41021664 108.28714187 14.41212231 115.38192238 14.40427649 122.47677857 C14.39960427 126.71237934 14.39896258 130.94787574 14.40888596 135.18346977 C14.41756664 139.16688537 14.41151373 143.15001516 14.39420319 147.13339996 C14.39024394 148.59346861 14.39136278 150.05356141 14.39799118 151.51362038 C14.40621834 153.510287 14.39406074 155.50700632 14.38095093 157.50364685 C14.37981985 158.61989661 14.37868877 159.73614637 14.37752342 160.88622189 C13.63857038 166.98103796 10.63364719 171.12066747 6 175 C1.41757763 176.90929309 -2.4830829 177.24188615 -7.4230957 177.22363281 C-8.50000168 177.22424461 -8.50000168 177.22424461 -9.59866333 177.22486877 C-11.1487761 177.22506543 -12.69889402 177.2210599 -14.2489872 177.21326447 C-16.7094699 177.20298424 -19.16945025 177.20845912 -21.62992859 177.21868896 C-28.62243573 177.24656723 -35.61465765 177.25921287 -42.60717773 177.22998047 C-46.89381037 177.21318747 -51.17954211 177.22566342 -55.46608543 177.25643158 C-57.09142878 177.2625065 -58.71685278 177.25774464 -60.34212685 177.24155426 C-69.76708495 177.15159338 -76.61068419 177.51209352 -84 184 C-85.36289845 184.93456438 -86.73642513 185.85402979 -88.125 186.75 C-88.99511719 187.33007812 -88.99511719 187.33007812 -89.8828125 187.921875 C-98.07462565 192.0933518 -109.10755001 192.77168966 -117.91015625 190.125 C-120.43156115 188.91025025 -122.68420015 187.57115713 -125 186 C-126.36511719 185.08154297 -126.36511719 185.08154297 -127.7578125 184.14453125 C-129.50913848 182.93456957 -131.24770525 181.70578415 -132.96875 180.453125 C-136.77820013 177.72790298 -139.31568787 177.86557273 -144.00073242 177.84228516 C-145.08158112 177.83466408 -145.08158112 177.83466408 -146.18426514 177.82688904 C-147.75189683 177.81617672 -149.3195439 177.80755993 -150.88719749 177.80076981 C-153.37192647 177.78898444 -155.85648134 177.76953047 -158.34114075 177.74765015 C-165.40681115 177.68603711 -172.47246582 177.63207362 -179.53833008 177.59863281 C-183.85908 177.57763254 -188.17951589 177.5422814 -192.50008583 177.49787521 C-194.14379479 177.48375163 -195.78755935 177.47500102 -197.43132591 177.47182083 C-199.73864713 177.46688634 -202.04514279 177.4436628 -204.35229492 177.41650391 C-206.3184803 177.40437363 -206.3184803 177.40437363 -208.3243866 177.39199829 C-213.04377137 176.88868345 -217.06860961 175.66290115 -220.7421875 172.5 C-224.33841691 167.73809623 -225.12487818 164.7197542 -225.14044189 158.83317566 C-225.14615204 157.5419429 -225.15186218 156.25071014 -225.15774536 154.92034912 C-225.15899071 153.48620615 -225.16011581 152.05206307 -225.16113281 150.61791992 C-225.16576133 149.1099892 -225.17078603 147.60205965 -225.17617798 146.09413147 C-225.18930094 141.99486388 -225.19574675 137.89561267 -225.20018864 133.79632735 C-225.20311958 131.23520611 -225.20722443 128.67408934 -225.21169281 126.11297035 C-225.22536757 118.09965733 -225.23503429 110.08635453 -225.2388947 102.07303065 C-225.24337531 92.82314348 -225.26092339 83.57340408 -225.2898953 74.32356185 C-225.31151268 67.17356984 -225.32159901 60.0236194 -225.32293582 52.87359506 C-225.32398382 48.60329115 -225.3298906 44.33312617 -225.34775543 40.06285667 C-225.3642371 36.04502667 -225.36639123 32.02744001 -225.35761642 28.00958824 C-225.35684609 26.53660938 -225.3611883 25.06361743 -225.37107468 23.59067154 C-225.38379923 21.57641262 -225.37612382 19.56205589 -225.36749268 17.54777527 C-225.36895924 16.42155353 -225.3704258 15.29533178 -225.3719368 14.13498211 C-224.79457447 9.26850858 -223.05105009 6.02410009 -219.5625 2.625 C-217 1 -217 1 -213 1 C-212.99365209 2.25097426 -212.99365209 2.25097426 -212.98717594 3.52722073 C-212.88401588 23.78975283 -212.77540043 44.05224923 -212.66066074 64.3147192 C-212.60530677 74.11336493 -212.55182126 83.91201431 -212.50268555 93.71069336 C-212.45987028 102.24800942 -212.41359911 110.78529844 -212.36312145 119.32257277 C-212.33649903 123.8458834 -212.31164551 128.3691886 -212.29092598 132.89253044 C-212.27139269 137.14500562 -212.24725905 141.39742922 -212.21950912 145.64985847 C-212.2101211 147.21522208 -212.20245217 148.78059703 -212.19658089 150.34597778 C-212.18834931 152.47390869 -212.17408132 154.60171338 -212.15821838 156.729599 C-212.15176583 157.92332091 -212.14531328 159.11704283 -212.1386652 160.34693813 C-212.30079066 162.92228787 -212.30079066 162.92228787 -211 164 C-208.73230477 164.09257098 -206.46171815 164.11458527 -204.19213867 164.11010742 C-202.71461485 164.11065049 -201.23709105 164.11123753 -199.75956726 164.11186218 C-198.97145849 164.11043402 -198.18334972 164.10900585 -197.37135887 164.10753441 C-193.19347061 164.10401679 -189.01571723 164.12983945 -184.83789062 164.15039062 C-179.5230804 164.17463671 -174.20865634 164.19053687 -168.89379883 164.17504883 C-164.59990802 164.16330399 -160.30697988 164.18101529 -156.01323891 164.21749306 C-154.38481017 164.22604677 -152.75628786 164.22412347 -151.12788963 164.210989 C-137.3310657 164.10815025 -128.09986143 167.81183016 -116.83984375 175.80078125 C-111.59448537 179.21973034 -104.98564752 178.71909953 -99 178 C-95.29966349 176.46791225 -92.24768024 174.32051991 -89 172 C-87.19736913 170.87979367 -85.38494535 169.77517331 -83.5625 168.6875 C-82.75941406 168.19636719 -81.95632812 167.70523438 -81.12890625 167.19921875 C-76.9862328 164.86563939 -73.29875383 164.86276249 -68.68286133 164.88647461 C-67.94115189 164.88632858 -67.19944244 164.88618256 -66.43525696 164.8860321 C-63.98415195 164.88672866 -61.53312298 164.89450903 -59.08203125 164.90234375 C-57.38238059 164.90420884 -55.68272939 164.90563232 -53.983078 164.90663147 C-49.50980139 164.91044945 -45.03655724 164.92027362 -40.56329346 164.93133545 C-35.99858031 164.94156501 -31.43386193 164.9461324 -26.86914062 164.95117188 C-17.91274615 164.96189651 -8.95637578 164.97896433 0 165 C0.1539748 144.3726414 0.30200597 123.74524777 0.4429636 103.11779594 C0.50855133 93.54009658 0.57608314 83.96241829 0.64819336 74.38476562 C0.71104039 66.03679179 0.77023801 57.68880141 0.82505554 49.34077084 C0.85420765 44.92066636 0.88518569 40.50059171 0.92053413 36.08053207 C0.95375579 31.91920138 0.98209317 27.75786584 1.00670624 23.5964756 C1.01659016 22.07027862 1.02824915 20.54409192 1.04183006 19.01792336 C1.06013146 16.93120823 1.0719937 14.84454979 1.08229065 12.75778198 C1.09058679 11.59079206 1.09888292 10.42380215 1.10743046 9.2214489 C1.00202583 6.06074722 0.59561154 3.10245549 0 0 Z " fill="#6AD8E7" transform="translate(261,50)"/>
<path d="M0 0 C3.22405761 1.41406819 5.33557576 3.10997629 7.78515625 5.625 C8.48060547 6.33140625 9.17605469 7.0378125 9.89257812 7.765625 C10.60865234 8.50296875 11.32472656 9.2403125 12.0625 10 C13.48859839 11.46056988 14.91689484 12.91899767 16.34765625 14.375 C16.97679932 15.02210937 17.60594238 15.66921875 18.25415039 16.3359375 C20.10051934 18.1916303 20.10051934 18.1916303 23 20 C22.49667071 24.28576957 21.29947053 26.17576631 18.2109375 29.14453125 C17.43363281 29.90443359 16.65632813 30.66433594 15.85546875 31.44726562 C15.03691406 32.22779297 14.21835938 33.00832031 13.375 33.8125 C8.22162221 38.79465536 3.18037029 43.7587888 -1.45654297 49.23120117 C-3.06393004 51.07326371 -4.7539663 52.78956827 -6.5 54.5 C-8.89277491 56.85033101 -11.13191112 59.264224 -13.3125 61.8125 C-16.07618029 65.02333755 -18.98619596 68.02267165 -22 71 C-25.60719127 74.56359983 -28.99477889 78.21924856 -32.2890625 82.0703125 C-34.74451277 84.83970162 -37.39096339 87.40035124 -40.02734375 89.99609375 C-42.57337829 92.58246151 -44.92021557 95.3153528 -47.28515625 98.06640625 C-49.49526138 100.55843823 -51.85465494 102.87060729 -54.23828125 105.1953125 C-56.76967315 107.78844567 -59.0461471 110.58211026 -61.32421875 113.3984375 C-63.31963393 115.30547765 -64.24764071 115.8121636 -67 116 C-69.16650391 114.38525391 -69.16650391 114.38525391 -71.4765625 111.9765625 C-72.311875 111.120625 -73.1471875 110.2646875 -74.0078125 109.3828125 C-74.87148437 108.47273438 -75.73515625 107.56265625 -76.625 106.625 C-78.34444557 104.84450903 -80.06570869 103.06577092 -81.7890625 101.2890625 C-82.54912598 100.49193848 -83.30918945 99.69481445 -84.09228516 98.87353516 C-85.8672993 96.9381671 -85.8672993 96.9381671 -88 96 C-87.45354896 92.08670547 -85.70064387 90.41281015 -82.875 87.75 C-79.94734074 84.92393144 -77.13905438 82.09748167 -74.5 79 C-71.25075327 75.20921215 -67.74813968 71.73121576 -64.1953125 68.2265625 C-61.55993257 65.55366826 -59.12233511 62.74631697 -56.6796875 59.8984375 C-55.01795424 58.02029247 -53.28874475 56.25694484 -51.5 54.5 C-49.148274 52.18980559 -46.94960735 49.82217812 -44.8125 47.3125 C-41.22002938 43.13615153 -37.33075516 39.30204244 -33.41455078 35.43408203 C-29.96930813 32.01486576 -26.72227275 28.48983603 -23.57421875 24.79296875 C-21.41419977 22.33279825 -19.08069726 20.07035076 -16.74609375 17.77734375 C-14.93522357 15.93406426 -13.24678646 14.02177201 -11.5625 12.0625 C-7.91592808 7.82750398 -3.99648447 3.90306016 0 0 Z " fill="#89CCE8" transform="translate(215,39)"/>
<path d="M0 0 C0.33 0 0.66 0 1 0 C1.00423194 0.55677083 1.00846388 1.11354166 1.01282406 1.68718433 C1.11643389 15.27707518 1.22517244 28.86691682 1.33933926 42.45672321 C1.39439797 49.02883112 1.44778976 55.60094358 1.49731445 62.1730957 C1.54521069 68.52087755 1.59756084 74.86860876 1.65294075 81.21632957 C1.67325042 83.63267943 1.69198142 86.04904311 1.70907402 88.46541786 C1.73337209 91.86151726 1.76338926 95.25752321 1.79467773 98.65356445 C1.8004332 99.64259766 1.80618866 100.63163086 1.81211853 101.65063477 C1.87139456 107.34689687 2.19612909 112.95517734 2.77583218 118.62278938 C3.07500628 121.79541181 3.12955407 124.94332753 3.1328125 128.12890625 C3.13410156 129.34771484 3.13539062 130.56652344 3.13671875 131.82226562 C3.13285156 133.05654297 3.12898438 134.29082031 3.125 135.5625 C3.12886719 136.83158203 3.13273437 138.10066406 3.13671875 139.40820312 C3.13542969 140.61541016 3.13414063 141.82261719 3.1328125 143.06640625 C3.13112061 144.7052478 3.13112061 144.7052478 3.12939453 146.37719727 C3 149 3 149 2 151 C2.99 151 3.98 151 5 151 C5.495 150.01 5.495 150.01 6 149 C5.855625 149.556875 5.71125 150.11375 5.5625 150.6875 C4.97230872 153.11384195 4.476571 155.54906345 4 158 C4.78375 158.28875 5.5675 158.5775 6.375 158.875 C9 160 9 160 11 162 C12.9331183 162.31582103 12.9331183 162.31582103 15.16748047 162.28710938 C16.02953094 162.30052368 16.89158142 162.31393799 17.77975464 162.32775879 C19.18428391 162.33567444 19.18428391 162.33567444 20.6171875 162.34375 C22.06848557 162.3656842 22.06848557 162.3656842 23.54910278 162.38806152 C26.65769253 162.4346696 29.76622025 162.46874873 32.875 162.5 C58.33576179 162.76037595 58.33576179 162.76037595 68 165 C68 165.66 68 166.32 68 167 C68.7425 166.79375 69.485 166.5875 70.25 166.375 C73.32330841 165.95591249 74.42786866 166.38050989 77 168 C76.67 168.66 76.34 169.32 76 170 C78.31 170.66 80.62 171.32 83 172 C83.99 170.02 84.98 168.04 86 166 C83.81477184 165.03619618 81.62704614 164.07890561 79.4375 163.125 C78.52387695 162.72087891 78.52387695 162.72087891 77.59179688 162.30859375 C71.56300315 159.69292663 65.72535699 157.86716313 59.125 157.4375 C54.10218978 157.10218978 54.10218978 157.10218978 53 156 C51.59952572 155.92467531 50.19531571 155.91688357 48.79296875 155.9375 C47.90496582 155.94587891 47.01696289 155.95425781 46.10205078 155.96289062 C45.14024902 155.97513672 44.17844727 155.98738281 43.1875 156 C32.42576285 156.07807361 21.73959982 155.65229674 11 155 C8.47351254 151.19700976 8.80579096 147.39915841 8.95654297 143.01855469 C8.97575806 142.2181778 8.99497314 141.4178009 9.01477051 140.59317017 C9.08063941 137.95237411 9.16134332 135.31225151 9.2421875 132.671875 C9.29080078 130.8391557 9.33848736 129.0064116 9.38528442 127.17364502 C9.51085887 122.35322798 9.64902151 117.53325076 9.78979492 112.71325684 C9.93125934 107.79341638 10.06083463 102.87326446 10.19140625 97.953125 C10.44929233 88.30174101 10.7204761 78.65077985 11 69 C11.33 69 11.66 69 12 69 C12 96.72 12 124.44 12 153 C23.22 153 34.44 153 46 153 C51.92640194 153.46179755 57.24927741 153.90848541 63 155 C63.66547852 155.12358887 64.33095703 155.24717773 65.01660156 155.37451172 C75.11383798 157.32538292 83.07614549 160.96783404 92 166 C91.95810547 164.81446533 91.91621094 163.62893066 91.87304688 162.4074707 C91.72802556 158.00041194 91.63633112 153.59356269 91.56054688 149.18481445 C91.52036338 147.27852903 91.46580313 145.37248945 91.39648438 143.46704102 C91.29919079 140.72350509 91.25402796 137.98322978 91.21875 135.23828125 C91.17745972 134.38913651 91.13616943 133.53999176 91.09362793 132.66511536 C91.09176626 130.19894465 91.17223417 128.32660915 92 126 C93.92044147 124.28193585 95.76782748 123.18586779 98.08215332 122.06193542 C100.32304288 121.01291233 100.32304288 121.01291233 102 118 C102.66 118 103.32 118 104 118 C104 133.84 104 149.68 104 166 C109.28 163.36 114.56 160.72 120 158 C124.00869597 156.39652161 126.89248762 155.55240889 131.0625 154.9375 C132.08472656 154.78152344 133.10695312 154.62554687 134.16015625 154.46484375 C145.39025554 153.10535055 156.45754695 152.87447346 167.75 152.9375 C169.33333191 152.94252903 170.91666537 152.94708943 172.5 152.95117188 C176.33337272 152.96205719 180.16666854 152.97924304 184 153 C183.98889694 151.78335159 183.97779388 150.56670319 183.96635437 149.31318665 C183.86502363 137.85094985 183.79005611 126.38880386 183.74093914 114.92622089 C183.71483864 109.03306228 183.67943138 103.14026506 183.62280273 97.24731445 C183.56850053 91.56091444 183.53858288 85.87486216 183.52561378 80.18822289 C183.51637079 78.01804313 183.49832138 75.84788255 183.47134972 73.67785072 C183.43508406 70.6393881 183.43005373 67.60236472 183.43237305 64.5637207 C183.40540848 63.21612671 183.40540848 63.21612671 183.37789917 61.84130859 C183.41238556 57.66951709 183.49429165 55.65630309 186.09797668 52.27726746 C187.05564438 51.5257692 188.01331207 50.77427094 189 50 C190.27421391 48.89973626 191.54497865 47.79546707 192.8125 46.6875 C193.87324959 45.7895947 194.93513145 44.89301656 196 44 C196.09351302 58.6296799 196.16401323 73.25932014 196.20724869 87.88923836 C196.22785884 94.68244554 196.25594947 101.47546683 196.30175781 108.26855469 C196.34594084 114.82375262 196.36913543 121.37882994 196.37950897 127.93416977 C196.38690204 130.43563757 196.40133882 132.93709475 196.42292023 135.43848038 C196.45193973 138.94115322 196.45595645 142.44302714 196.45410156 145.94580078 C196.46848267 146.98086258 196.48286377 148.01592438 196.49768066 149.08235168 C196.46453679 154.86313557 196.07540194 158.53479307 192 163 C189.19486412 164.92809055 186.95479317 165.25471194 183.58959961 165.28710938 C182.7244725 165.30052368 181.8593454 165.31393799 180.96800232 165.32775879 C180.03883499 165.33303589 179.10966766 165.33831299 178.15234375 165.34375 C177.18526993 165.3583728 176.21819611 165.37299561 175.22181702 165.38806152 C172.12708691 165.43453021 169.03241847 165.46870659 165.9375 165.5 C161.88388949 165.54148385 157.83070435 165.59538199 153.77734375 165.65625 C152.86234604 165.6615271 151.94734833 165.6668042 151.00462341 165.67224121 C134.89431461 165.91582836 120.72680583 170.46274883 107.59301758 179.69726562 C103.2698581 182.63228518 100.38702642 183.78108784 95 183 C92.0078125 181.64453125 92.0078125 181.64453125 89.125 179.8125 C87.55878906 178.8534375 87.55878906 178.8534375 85.9609375 177.875 C84.23131623 176.77972532 82.5054243 175.67843841 80.7890625 174.5625 C73.74593964 170.24487679 65.98718161 168.73338835 58 167 C57.30874023 166.82218994 56.61748047 166.64437988 55.90527344 166.46118164 C51.55797335 165.77109342 47.23882376 165.84363087 42.84375 165.82421875 C40.83202066 165.80103114 38.82030186 165.77691425 36.80859375 165.75195312 C33.64852722 165.71678663 30.48885212 165.6874528 27.32861328 165.67407227 C24.27068355 165.65860414 21.21388174 165.61841771 18.15625 165.57421875 C17.21342163 165.57612717 16.27059326 165.57803558 15.29919434 165.58000183 C11.22455933 165.5040258 8.64896744 165.36571616 5.05273438 163.33911133 C0.96147297 158.67707808 -0.37571149 154.54266141 -0.36076355 148.39407349 C-0.36694954 146.42541069 -0.36694954 146.42541069 -0.3732605 144.41697693 C-0.36264501 142.97475988 -0.35174061 141.53254493 -0.34057617 140.09033203 C-0.3397294 138.56237301 -0.34020603 137.03441278 -0.34190369 135.50645447 C-0.3427631 131.36840448 -0.32514611 127.23061629 -0.30418181 123.09262705 C-0.28540605 118.76447286 -0.28366386 114.43631241 -0.28010559 110.10812378 C-0.27078777 101.91655259 -0.24617755 93.72510176 -0.21605712 85.53358352 C-0.18250493 76.20594839 -0.16602504 66.87830746 -0.15097082 57.55062699 C-0.11962776 38.36701647 -0.06687237 19.18351792 0 0 Z " fill="#4AD4E1" transform="translate(57,38)"/>
<path d="M0 0 C0 53.46 0 106.92 0 162 C-0.33 162 -0.66 162 -1 162 C-1.33 158.37 -1.66 154.74 -2 151 C-2 154.63 -2 158.26 -2 162 C-3.11375 162.0825 -4.2275 162.165 -5.375 162.25 C-9.05753944 162.57873787 -9.05753944 162.57873787 -10.4375 165.0625 C-10.623125 165.701875 -10.80875 166.34125 -11 167 C-12.09518887 163.7144334 -12.13129446 161.29296227 -12.14044189 157.83317566 C-12.14615204 156.5419429 -12.15186218 155.25071014 -12.15774536 153.92034912 C-12.15899071 152.48620615 -12.16011581 151.05206307 -12.16113281 149.61791992 C-12.16576133 148.1099892 -12.17078603 146.60205965 -12.17617798 145.09413147 C-12.18930094 140.99486388 -12.19574675 136.89561267 -12.20018864 132.79632735 C-12.20311958 130.23520611 -12.20722443 127.67408934 -12.21169281 125.11297035 C-12.22536757 117.09965733 -12.23503429 109.08635453 -12.2388947 101.07303065 C-12.24337531 91.82314348 -12.26092339 82.57340408 -12.2898953 73.32356185 C-12.31151268 66.17356984 -12.32159901 59.0236194 -12.32293582 51.87359506 C-12.32398382 47.60329115 -12.3298906 43.33312617 -12.34775543 39.06285667 C-12.3642371 35.04502667 -12.36639123 31.02744001 -12.35761642 27.00958824 C-12.35684609 25.53660938 -12.3611883 24.06361743 -12.37107468 22.59067154 C-12.38379923 20.57641262 -12.37612382 18.56205589 -12.36749268 16.54777527 C-12.36895924 15.42155353 -12.3704258 14.29533178 -12.3719368 13.13498211 C-11.79457447 8.26850858 -10.05105009 5.02410009 -6.5625 1.625 C-4 0 -4 0 0 0 Z " fill="#87CDEA" transform="translate(48,51)"/>
<path d="M0 0 C4.35268989 2.0495343 7.81956544 4.7122532 11.0625 8.25 C12.52298608 12.53409251 12.63559947 16.52913554 12 21 C10.41315951 24.17368098 8.54382887 26.41504122 6.140625 29 C5.49609375 29.70125 4.8515625 30.4025 4.1875 31.125 C3.56230469 31.76695313 2.93710938 32.40890625 2.29296875 33.0703125 C0.78043354 34.89127081 0.78043354 34.89127081 1.17578125 36.9921875 C1.97137564 39.02104488 1.97137564 39.02104488 3.03125 40.95703125 C4.89506582 44.88757831 4.63164142 48.7724318 4 53 C0.65102244 59.75914781 -4.74098763 65.25641768 -9.9375 70.625 C-10.61490234 71.3365625 -11.29230469 72.048125 -11.99023438 72.78125 C-15.21178171 76.1541452 -18.47225455 79.48244677 -21.78125 82.76953125 C-24.14591578 85.12245256 -26.40491784 87.51557971 -28.5625 90.0625 C-29.13871094 90.7225 -29.71492187 91.3825 -30.30859375 92.0625 C-31.41238011 93.32688345 -32.50910203 94.59747915 -33.59765625 95.875 C-35.125 97.5625 -35.125 97.5625 -38 100 C-40.62671187 99.94162863 -42.11106326 99.88893674 -44 98 C-44.39718868 94.87970422 -44.34926285 93.47429596 -42.45874023 90.90698242 C-41.39441772 89.89148315 -41.39441772 89.89148315 -40.30859375 88.85546875 C-39.13780273 87.71561523 -39.13780273 87.71561523 -37.94335938 86.55273438 C-37.11642578 85.77220703 -36.28949219 84.99167969 -35.4375 84.1875 C-33.82962846 82.6418185 -32.22413171 81.09366262 -30.62109375 79.54296875 C-29.83766602 78.78604736 -29.05423828 78.02912598 -28.24707031 77.24926758 C-25.52759727 74.52713534 -23.01664321 71.66667526 -20.5168457 68.74389648 C-18.58191063 66.51932845 -16.50304513 64.47655415 -14.375 62.4375 C-7.8109413 56.2444187 -7.8109413 56.2444187 -4.60058594 48.11010742 C-5.12367585 44.03697641 -6.52864534 42.76449015 -9.453125 39.92578125 C-10.38253906 39.01119141 -11.31195313 38.09660156 -12.26953125 37.15429688 C-13.2628898 36.20689384 -14.25638065 35.2596295 -15.25 34.3125 C-16.22918062 33.35485941 -17.20706022 32.39588663 -18.18359375 31.43554688 C-23.83045305 25.91252502 -23.83045305 25.91252502 -30 21 C-28.62431538 17.91510574 -27.04305922 15.78649214 -24.6640625 13.3984375 C-24.01179688 12.74359375 -23.35953125 12.08875 -22.6875 11.4140625 C-22.006875 10.74117187 -21.32625 10.06828125 -20.625 9.375 C-19.95210937 8.694375 -19.27921875 8.01375 -18.5859375 7.3125 C-17.93109375 6.66023438 -17.27625 6.00796875 -16.6015625 5.3359375 C-16.00682129 4.74345215 -15.41208008 4.1509668 -14.79931641 3.54052734 C-10.29908794 -0.31244981 -5.74686623 -1.05405043 0 0 Z " fill="#CCD9E5" transform="translate(251,13)"/>
<path d="M0 0 C3.15204981 1.39347376 5.26171773 3.02485079 7.671875 5.4765625 C8.33574219 6.146875 8.99960938 6.8171875 9.68359375 7.5078125 C10.70646484 8.55582031 10.70646484 8.55582031 11.75 9.625 C12.44738281 10.33140625 13.14476562 11.0378125 13.86328125 11.765625 C15.58012488 13.50598703 17.29211832 15.25084981 19 17 C15.48283697 17 14.62878252 16.17554415 12 14 C1.02875673 19.06555151 -8.29791071 28.91365821 -16.01953125 37.9609375 C-18 40 -18 40 -21 41 C-21.27070313 41.56332031 -21.54140625 42.12664062 -21.8203125 42.70703125 C-23.52147311 46.01359177 -26.15541925 48.22552942 -28.875 50.6875 C-29.40480469 51.18572266 -29.93460938 51.68394531 -30.48046875 52.19726562 C-33.27957027 54.75674183 -35.30982896 56.21905683 -39 57 C-39.33 57.99 -39.66 58.98 -40 60 C-40.66 60 -41.32 60 -42 60 C-42.33 60.99 -42.66 61.98 -43 63 C-44.62102968 64.71108689 -46.29503463 66.37253306 -48 68 C-49.2375 69.2375 -49.2375 69.2375 -50.5 70.5 C-52.17711568 72.17711568 -53.86480856 73.84371567 -55.5625 75.5 C-58.02015888 77.92915533 -58.02015888 77.92915533 -60 80.5625 C-62 83 -62 83 -64.6875 85.125 C-67.25247789 86.86120977 -67.25247789 86.86120977 -68 90 C-69.77734375 91.82421875 -69.77734375 91.82421875 -71.9375 93.6875 C-73.00291016 94.62142578 -73.00291016 94.62142578 -74.08984375 95.57421875 C-76 97 -76 97 -78 97 C-78 96.34 -78 95.68 -78 95 C-79.65 94.34 -81.3 93.68 -83 93 C-82.38511719 92.20335937 -82.38511719 92.20335937 -81.7578125 91.390625 C-81.21898437 90.68421875 -80.68015625 89.9778125 -80.125 89.25 C-79.59132812 88.55390625 -79.05765625 87.8578125 -78.5078125 87.140625 C-76.96008417 85.07091872 -76.96008417 85.07091872 -75.98046875 82.859375 C-74.42741069 79.91413343 -71.7774885 78.74273789 -69 77 C-64.94985012 74.1070358 -62.72667031 71.13398402 -60 67 C-59.29875 66.484375 -58.5975 65.96875 -57.875 65.4375 C-55.80633062 64.12295543 -55.80633062 64.12295543 -55.1875 61.6875 C-53.67588004 58.26646534 -51.55933725 56.70541267 -48.65625 54.4296875 C-46.7473865 52.91075059 -46.7473865 52.91075059 -45 50 C-44.34 50 -43.68 50 -43 50 C-42.773125 49.46375 -42.54625 48.9275 -42.3125 48.375 C-40.58371945 45.24673044 -38.29104738 42.73808101 -36 40 C-35.37351562 38.88044922 -35.37351562 38.88044922 -34.734375 37.73828125 C-32.44410857 34.12234259 -29.63785728 31.21084319 -26.6875 28.125 C-25.43212896 26.79702879 -24.17692568 25.46889898 -22.921875 24.140625 C-22.27669922 23.46064453 -21.63152344 22.78066406 -20.96679688 22.08007812 C-17.18698066 18.0825565 -13.45128315 14.04368955 -9.70776367 10.01220703 C-6.53470794 6.60663278 -3.31297222 3.26978637 0 0 Z " fill="#C0DAF6" transform="translate(215,39)"/>
<path d="M0 0 C0 36.3 0 72.6 0 110 C-0.66 109.01 -1.32 108.02 -2 107 C-2.99 107.495 -2.99 107.495 -4 108 C-6.00800456 107.71887936 -8.01014051 107.38932033 -10 107 C-9.99476318 106.28344238 -9.98952637 105.56688477 -9.98413086 104.82861328 C-9.96339333 101.59408438 -9.95035016 98.35956944 -9.9375 95.125 C-9.92912109 93.99707031 -9.92074219 92.86914062 -9.91210938 91.70703125 C-9.90888672 90.63066406 -9.90566406 89.55429688 -9.90234375 88.4453125 C-9.89710693 87.45031738 -9.89187012 86.45532227 -9.88647461 85.43017578 C-9.8360585 82.99039227 -9.8360585 82.99039227 -11 81 C-11.14322346 78.84342126 -11.22215187 76.682478 -11.2722168 74.52172852 C-11.28842575 73.85635574 -11.3046347 73.19098297 -11.32133484 72.50544739 C-11.46196535 66.34622064 -11.53978626 60.18555618 -11.60025311 54.02507114 C-11.64111339 49.89126176 -11.70119008 45.75984113 -11.80932617 41.62719727 C-11.91370924 37.62402193 -11.96775788 33.62296977 -11.98771095 29.61851311 C-12.00354074 28.10059569 -12.03653937 26.58274669 -12.08786583 25.0656147 C-12.32128351 17.81377113 -12.26131167 11.69938098 -7.4003191 5.96071529 C-1.75943982 0 -1.75943982 0 0 0 Z " fill="#81CEF2" transform="translate(253,82)"/>
<path d="M0 0 C4.2208444 1.69246573 7.17117098 4.68898309 10.4375 7.75 C11.27764648 8.51957031 11.27764648 8.51957031 12.13476562 9.3046875 C15.74234108 12.65548104 18.922074 16.15690736 22 20 C17.33708636 22.83829526 12.72509377 24.96895276 7.62890625 26.9140625 C4.02198981 28.40399232 0.63594764 30.25104537 -2.7734375 32.14453125 C-5.336748 33.12938213 -6.46691901 32.94267626 -9 32 C-10.81154553 26.8773518 -8.86116715 23.47438167 -6.75 18.8125 C-6.09402623 17.30104943 -5.44165939 15.78802816 -4.79296875 14.2734375 C-4.48020996 13.54350586 -4.16745117 12.81357422 -3.84521484 12.06152344 C-2.23703014 8.1390764 -1.05785961 4.10046536 0 0 Z " fill="#96CFEF" transform="translate(121,140)"/>
<path d="M0 0 C0 3 0 3 -2.125 5.25 C-3.07375 6.1575 -4.0225 7.065 -5 8 C-5.99013644 9.15737129 -6.96897623 10.32448302 -7.9375 11.5 C-10.69547639 14.76976582 -13.66284432 17.33027545 -17 20 C-18.00412933 20.99585354 -19.00370595 21.99630773 -20 23 C-21.34270852 24.24167302 -22.69744724 25.47043426 -24.0625 26.6875 C-24.75472656 27.31011719 -25.44695312 27.93273437 -26.16015625 28.57421875 C-28 30 -28 30 -30 30 C-30.495 31.485 -30.495 31.485 -31 33 C-31.598125 33.2475 -32.19625 33.495 -32.8125 33.75 C-35.60374255 35.34499574 -36.46488198 37.41730586 -37.93359375 40.19921875 C-39.53203051 42.89841049 -41.73672062 44.84988459 -44 47 C-44.66 47.86625 -45.32 48.7325 -46 49.625 C-48.15978216 52.18974132 -50.10584352 53.3461963 -53 55 C-56.66444446 57.69224491 -59.01919594 59.72006908 -61.125 63.75 C-63 67 -63 67 -64.8515625 67.91796875 C-67 68 -67 68 -69.140625 66.56640625 C-70.18476563 65.57447266 -70.18476563 65.57447266 -71.25 64.5625 C-71.95640625 63.90378906 -72.6628125 63.24507812 -73.390625 62.56640625 C-73.92171875 62.04949219 -74.4528125 61.53257812 -75 61 C-74.45354896 57.08670547 -72.70064387 55.41281015 -69.875 52.75 C-66.94734074 49.92393144 -64.13905438 47.09748167 -61.5 44 C-58.25075327 40.20921215 -54.74813968 36.73121576 -51.1953125 33.2265625 C-48.55993257 30.55366826 -46.12233511 27.74631697 -43.6796875 24.8984375 C-41.48008365 22.41237362 -39.12386163 20.11130066 -36.75390625 17.7890625 C-34.88906777 15.88684418 -33.16494605 13.90237625 -31.4375 11.875 C-28.53732184 8.50239463 -25.50352579 5.73445916 -22 3 C-22.66666667 4.33333333 -23.33333333 5.66666667 -24 7 C-24.2475 7.639375 -24.495 8.27875 -24.75 8.9375 C-26.22822878 11.37657748 -28.125854 12.82111855 -30.34765625 14.5703125 C-32.72620724 16.62834953 -34.63753275 19.00420736 -36.60546875 21.44921875 C-38 23 -38 23 -41 25 C-41.28875 25.78375 -41.5775 26.5675 -41.875 27.375 C-43.28933426 30.67511326 -45.19782192 31.79828865 -48 34 C-48.598125 34.94875 -49.19625 35.8975 -49.8125 36.875 C-52.57825139 40.82607341 -55.89216246 43.49261865 -60 46 C-60.66 46 -61.32 46 -62 46 C-62.0825 46.53625 -62.165 47.0725 -62.25 47.625 C-63.27293806 50.86430387 -65.00033698 53.27318679 -67 56 C-67.99 56.495 -67.99 56.495 -69 57 C-68.34 57.45375 -67.68 57.9075 -67 58.375 C-66.34 58.91125 -65.68 59.4475 -65 60 C-65 60.66 -65 61.32 -65 62 C-64.44570312 61.4946875 -63.89140625 60.989375 -63.3203125 60.46875 C-62.23363281 59.49421875 -62.23363281 59.49421875 -61.125 58.5 C-60.04605469 57.52546875 -60.04605469 57.52546875 -58.9453125 56.53125 C-57 55 -57 55 -55 55 C-54.67 53.68 -54.34 52.36 -54 51 C-53.34 51 -52.68 51 -52 51 C-51.67 50.01 -51.34 49.02 -51 48 C-48.7502186 45.50699899 -46.8523374 43.41399245 -43.8125 41.9375 C-41.47139069 40.72658139 -40.95928874 39.39822186 -40 37 C-39.34 37 -38.68 37 -38 37 C-37.7525 36.443125 -37.505 35.88625 -37.25 35.3125 C-34.64827025 30.49929997 -31.26447031 27.34242267 -27 24 C-26.67 23.34 -26.34 22.68 -26 22 C-25.29875 21.608125 -24.5975 21.21625 -23.875 20.8125 C-20.65807967 18.78444153 -18.34022729 16.43208021 -15.7109375 13.7109375 C-13.61729956 11.61729956 -11.31638959 9.83948585 -9 8 C-8.67 7.34 -8.34 6.68 -8 6 C-6.33720673 4.9935725 -4.67016516 3.99414593 -3 3 C-1.24850835 1.41754725 -1.24850835 1.41754725 0 0 Z " fill="#98D1F5" transform="translate(202,74)"/>
<path d="M0 0 C1.32 0.33 2.64 0.66 4 1 C4 1.99 4 2.98 4 4 C5.32 3.67 6.64 3.34 8 3 C5.30796561 8.23911308 1.28526257 12.16301061 -2.75 16.375 C-3.4409375 17.10460937 -4.131875 17.83421875 -4.84375 18.5859375 C-8.11659158 22.0310339 -11.42127278 25.43669794 -14.79296875 28.78515625 C-17.1544219 31.13249311 -19.40890507 33.52028644 -21.5625 36.0625 C-22.13871094 36.7225 -22.71492187 37.3825 -23.30859375 38.0625 C-24.41238011 39.32688345 -25.50910203 40.59747915 -26.59765625 41.875 C-28.125 43.5625 -28.125 43.5625 -31 46 C-33.62671187 45.94162863 -35.11106326 45.88893674 -37 44 C-37.39718868 40.87970422 -37.34926285 39.47429596 -35.45874023 36.90698242 C-34.74919189 36.22998291 -34.03964355 35.5529834 -33.30859375 34.85546875 C-32.13780273 33.71561523 -32.13780273 33.71561523 -30.94335938 32.55273438 C-30.11642578 31.77220703 -29.28949219 30.99167969 -28.4375 30.1875 C-26.82962846 28.6418185 -25.22413171 27.09366262 -23.62109375 25.54296875 C-22.44571045 24.40722412 -22.44571045 24.40722412 -21.24658203 23.24853516 C-18.5308625 20.53045465 -16.02209563 17.67547799 -13.52563477 14.75708008 C-11.54201937 12.47254176 -9.41922329 10.35768504 -7.25 8.25 C-4.5612364 5.63644657 -2.17583332 3.05718353 0 0 Z " fill="#A6C3E2" transform="translate(244,67)"/>
<path d="M0 0 C0.33 0 0.66 0 1 0 C1.00423194 0.55677083 1.00846388 1.11354166 1.01282406 1.68718433 C1.11643389 15.27707518 1.22517244 28.86691682 1.33933926 42.45672321 C1.39439797 49.02883112 1.44778976 55.60094358 1.49731445 62.1730957 C1.54521069 68.52087755 1.59756084 74.86860876 1.65294075 81.21632957 C1.67325042 83.63267943 1.69198142 86.04904311 1.70907402 88.46541786 C1.73337209 91.86151726 1.76338926 95.25752321 1.79467773 98.65356445 C1.8004332 99.64259766 1.80618866 100.63163086 1.81211853 101.65063477 C1.87139456 107.34689687 2.19612909 112.95517734 2.77583218 118.62278938 C3.07500628 121.79541181 3.12955407 124.94332753 3.1328125 128.12890625 C3.13410156 129.34771484 3.13539062 130.56652344 3.13671875 131.82226562 C3.13285156 133.05654297 3.12898438 134.29082031 3.125 135.5625 C3.12886719 136.83158203 3.13273437 138.10066406 3.13671875 139.40820312 C3.13542969 140.61541016 3.13414063 141.82261719 3.1328125 143.06640625 C3.13112061 144.7052478 3.13112061 144.7052478 3.12939453 146.37719727 C3 149 3 149 2 151 C2.99 151 3.98 151 5 151 C5.495 150.01 5.495 150.01 6 149 C5.855625 149.556875 5.71125 150.11375 5.5625 150.6875 C4.97230872 153.11384195 4.476571 155.54906345 4 158 C4.78375 158.28875 5.5675 158.5775 6.375 158.875 C9 160 9 160 11 162 C12.9331183 162.31582103 12.9331183 162.31582103 15.16748047 162.28710938 C16.02953094 162.30052368 16.89158142 162.31393799 17.77975464 162.32775879 C19.18428391 162.33567444 19.18428391 162.33567444 20.6171875 162.34375 C22.06848557 162.3656842 22.06848557 162.3656842 23.54910278 162.38806152 C26.65769253 162.4346696 29.76622025 162.46874873 32.875 162.5 C58.33576179 162.76037595 58.33576179 162.76037595 68 165 C68 165.66 68 166.32 68 167 C68.7425 166.79375 69.485 166.5875 70.25 166.375 C73.32330841 165.95591249 74.42786866 166.38050989 77 168 C76.67 168.66 76.34 169.32 76 170 C77.11375 170.2475 78.2275 170.495 79.375 170.75 C83 172 83 172 84.4375 174.125 C84.623125 174.74375 84.80875 175.3625 85 176 C82.43952255 174.9970693 79.91492483 173.96106076 77.4140625 172.81640625 C60.87427887 165.38045311 44.57379953 165.55438552 26.77929688 165.56420898 C23.78740727 165.56064721 20.79641694 165.53338398 17.8046875 165.50390625 C16.89322968 165.51208878 15.98177185 165.5202713 15.04269409 165.52870178 C11.04333575 165.48160185 8.60416212 165.34211651 5.07470703 163.34350586 C0.95687569 158.69216872 -0.37572817 154.54951987 -0.36076355 148.39407349 C-0.36694954 146.42541069 -0.36694954 146.42541069 -0.3732605 144.41697693 C-0.36264501 142.97475988 -0.35174061 141.53254493 -0.34057617 140.09033203 C-0.3397294 138.56237301 -0.34020603 137.03441278 -0.34190369 135.50645447 C-0.3427631 131.36840448 -0.32514611 127.23061629 -0.30418181 123.09262705 C-0.28540605 118.76447286 -0.28366386 114.43631241 -0.28010559 110.10812378 C-0.27078777 101.91655259 -0.24617755 93.72510176 -0.21605712 85.53358352 C-0.18250493 76.20594839 -0.16602504 66.87830746 -0.15097082 57.55062699 C-0.11962776 38.36701647 -0.06687237 19.18351792 0 0 Z " fill="#6FB1C0" transform="translate(57,38)"/>
<path d="M0 0 C0.33 0 0.66 0 1 0 C1.07008918 19.84507417 1.12298774 39.6901232 1.15543652 59.53529549 C1.17090368 68.7498094 1.19199034 77.96424639 1.22631836 87.17871094 C1.25622531 95.21028345 1.2755761 103.24180025 1.28226548 111.27342689 C1.28617555 115.52590257 1.2953616 119.77821888 1.31719017 124.03064346 C1.3375758 128.03446594 1.34382962 132.03806361 1.33932304 136.04193306 C1.34014732 137.51007751 1.34610071 138.9782296 1.35761642 140.44632912 C1.37259124 142.45416425 1.36715472 144.46212042 1.36076355 146.47000122 C1.36352893 147.59274508 1.36629431 148.71548893 1.36914349 149.87225533 C0.64861203 155.97730256 -2.36147363 160.11658257 -7 164 C-11.58646565 165.90803044 -15.52690412 166.25499436 -20.47070312 166.27124023 C-21.55483742 166.27908035 -21.55483742 166.27908035 -22.66087341 166.28707886 C-24.22078802 166.29727275 -25.78073619 166.30309117 -27.34068298 166.30496025 C-29.81293433 166.30864092 -32.28479061 166.32541258 -34.75695801 166.34571838 C-41.78239593 166.40097554 -48.80789053 166.43182217 -55.83349609 166.45629883 C-60.13937994 166.47220048 -64.44498039 166.50244168 -68.75071716 166.54106331 C-70.38688645 166.55268502 -72.02310645 166.55864341 -73.65931702 166.55874443 C-75.94961047 166.55893716 -78.23912487 166.57725092 -80.52929688 166.59936523 C-81.83024292 166.60443588 -83.13118896 166.60950653 -84.47155762 166.61473083 C-88.26258235 167.02867126 -90.7255191 168.09333799 -94 170 C-94 169.01 -94 168.02 -94 167 C-93.01 167 -92.02 167 -91 167 C-90.67 166.01 -90.34 165.02 -90 164 C-63.27 163.67 -36.54 163.34 -9 163 C-8.67 162.01 -8.34 161.02 -8 160 C-7.34 160 -6.68 160 -6 160 C-5.67 158.68 -5.34 157.36 -5 156 C-3.68 155.67 -2.36 155.34 -1 155 C-0.67 103.85 -0.34 52.7 0 0 Z " fill="#4A7D87" transform="translate(274,61)"/>
<path d="M0 0 C0.33 0 0.66 0 1 0 C1 27.72 1 55.44 1 84 C12.22 84 23.44 84 35 84 C40.92640194 84.46179755 46.24927741 84.90848541 52 86 C52.66547852 86.12358887 53.33095703 86.24717773 54.01660156 86.37451172 C64.36221059 88.37337061 71.25302247 91.75162748 81 97 C81 83.8 81 70.6 81 57 C82.32 56.67 83.64 56.34 85 56 C84.505 56.99 84.505 56.99 84 58 C83.34 58 82.68 58 82 58 C82 71.2 82 84.4 82 98 C76.29316154 97.18473736 73.04655122 96.36611546 68 94.0625 C61.4388677 91.08216423 55.35264986 88.90799798 48.125 88.4375 C43.10218978 88.10218978 43.10218978 88.10218978 42 87 C40.59952572 86.92467531 39.19531571 86.91688357 37.79296875 86.9375 C36.90496582 86.94587891 36.01696289 86.95425781 35.10205078 86.96289062 C34.14024902 86.97513672 33.17844727 86.98738281 32.1875 87 C21.42576285 87.07807361 10.73959982 86.65229674 0 86 C-2.52648746 82.19700976 -2.19420904 78.39915841 -2.04345703 74.01855469 C-2.02424194 73.2181778 -2.00502686 72.4178009 -1.98522949 71.59317017 C-1.91936059 68.95237411 -1.83865668 66.31225151 -1.7578125 63.671875 C-1.70919922 61.8391557 -1.66151264 60.0064116 -1.61471558 58.17364502 C-1.48914113 53.35322798 -1.35097849 48.53325076 -1.21020508 43.71325684 C-1.06874066 38.79341638 -0.93916537 33.87326446 -0.80859375 28.953125 C-0.55070767 19.30174101 -0.2795239 9.65077985 0 0 Z " fill="#62C0D4" transform="translate(68,107)"/>
<path d="M0 0 C0 0.66 0 1.32 0 2 C1.093125 2.0825 2.18625 2.165 3.3125 2.25 C7 3 7 3 8.9375 5.0625 C9.288125 5.701875 9.63875 6.34125 10 7 C5.33708636 9.83829526 0.72509377 11.96895276 -4.37109375 13.9140625 C-7.97801019 15.40399232 -11.36405236 17.25104537 -14.7734375 19.14453125 C-17.336748 20.12938213 -18.46691901 19.94267626 -21 19 C-22.15837626 14.94568308 -21.83691257 12.78187881 -20 9 C-19.896875 9.639375 -19.79375 10.27875 -19.6875 10.9375 C-19.460625 11.618125 -19.23375 12.29875 -19 13 C-18.01 13.33 -17.02 13.66 -16 14 C-15.67 12.35 -15.34 10.7 -15 9 C-13.7315625 8.7215625 -13.7315625 8.7215625 -12.4375 8.4375 C-8.42920821 6.76130525 -6.39213621 4.63546563 -3.515625 1.4609375 C-2 0 -2 0 0 0 Z " fill="#52D4E3" transform="translate(133,153)"/>
<path d="M0 0 C1.86230469 0.83447266 1.86230469 0.83447266 3.11230469 3.39697266 C3.35980469 4.20134766 3.60730469 5.00572266 3.86230469 5.83447266 C1.64441927 8.32294976 -0.58090868 10.80369755 -2.82128906 13.27197266 C-4.12420073 14.71330496 -5.41710821 16.16436473 -6.67285156 17.64697266 C-7.88769531 19.02197266 -7.88769531 19.02197266 -10.13769531 20.83447266 C-14.3281715 20.64399647 -14.3281715 20.64399647 -16.13769531 18.83447266 C-16.62207031 16.73291016 -16.62207031 16.73291016 -16.13769531 13.83447266 C-14.16333983 11.09470791 -11.80659831 8.80638449 -9.38769531 6.45947266 C-8.43636719 5.47914062 -8.43636719 5.47914062 -7.46582031 4.47900391 C-6.84707031 3.86669922 -6.22832031 3.25439453 -5.59082031 2.62353516 C-5.02524414 2.06359863 -4.45966797 1.50366211 -3.87695312 0.92675781 C-2.13769531 -0.16552734 -2.13769531 -0.16552734 0 0 Z " fill="#98C1E5" transform="translate(223.1376953125,92.16552734375)"/>
<path d="M0 0 C0 3.63320695 -0.73946263 4.25506176 -3 7 C-3.61875 7.804375 -4.2375 8.60875 -4.875 9.4375 C-7.99934151 13.20508829 -11.33098781 16.49736277 -15.1875 19.5 C-18.09833461 22.08740854 -18.65009777 23.4902542 -20 27 C-21.65385233 28.34919532 -23.321702 29.68133728 -25 31 C-25.598125 31.94875 -26.19625 32.8975 -26.8125 33.875 C-29.57825139 37.82607341 -32.89216246 40.49261865 -37 43 C-37.66 43 -38.32 43 -39 43 C-39.0825 43.53625 -39.165 44.0725 -39.25 44.625 C-40.77639376 49.45858025 -43.64425164 53.38655099 -48 56 C-48.66 56 -49.32 56 -50 56 C-50 56.66 -50 57.32 -50 58 C-50.66 58 -51.32 58 -52 58 C-51.45354896 54.08670547 -49.70064387 52.41281015 -46.875 49.75 C-43.94734074 46.92393144 -41.13905438 44.09748167 -38.5 41 C-35.25075327 37.20921215 -31.74813968 33.73121576 -28.1953125 30.2265625 C-25.55993257 27.55366826 -23.12233511 24.74631697 -20.6796875 21.8984375 C-18.48078264 19.41316363 -16.12439776 17.1131978 -13.7578125 14.7890625 C-11.26494528 12.25187764 -8.96588705 9.56058904 -6.64453125 6.8671875 C-4.52869105 4.46487962 -2.2975339 2.22791166 0 0 Z " fill="#95C0E0" transform="translate(179,77)"/>
<path d="M0 0 C6.78376359 5.55035203 12.85522968 11.76442027 19 18 C17.68 18.33 16.36 18.66 15 19 C14.67 20.65 14.34 22.3 14 24 C13.34 24 12.68 24 12 24 C11.67 23.01 11.34 22.02 11 21 C9.37571904 19.353524 9.37571904 19.353524 7.375 17.75 C3.36917659 14.35878848 -0.3422074 10.76066802 -4 7 C-3.34 6.21625 -2.68 5.4325 -2 4.625 C0.20201441 2.28487188 0.20201441 2.28487188 0 0 Z " fill="#0D1422" transform="translate(226,38)"/>
<path d="M0 0 C1.32 0.33 2.64 0.66 4 1 C4 1.66 4 2.32 4 3 C8.84928755 5.50825218 12.81794688 6.16025177 18.2253418 6.20532227 C18.95729767 6.21522186 19.68925354 6.22512146 20.44338989 6.23532104 C22.86196665 6.26690011 25.28056304 6.29167923 27.69921875 6.31640625 C29.37645477 6.33697888 31.05368564 6.35797544 32.73091125 6.37937927 C37.14494659 6.43456801 41.55902846 6.48399139 45.97314453 6.53222656 C50.47758119 6.58246493 54.98195028 6.63813881 59.48632812 6.69335938 C68.32416102 6.80090183 77.16205259 6.90235551 86 7 C86 7.66 86 8.32 86 9 C76.34214592 9.06962635 66.68437875 9.12287529 57.02632809 9.15543652 C52.54130603 9.17106726 48.05645617 9.19225798 43.5715332 9.22631836 C39.24026874 9.25900453 34.90916953 9.2768725 30.57779121 9.28463173 C28.9284359 9.29015866 27.27908924 9.3009514 25.62980461 9.31719017 C23.31282141 9.33908799 20.99651401 9.34196185 18.67944336 9.34057617 C16.70420937 9.35056892 16.70420937 9.35056892 14.68907166 9.36076355 C9.25608369 8.82945806 5.36607533 7.47115805 1.5625 3.375 C0 1 0 1 0 0 Z " fill="#58A9B0" transform="translate(38,218)"/>
<path d="M0 0 C0.33 0 0.66 0 1 0 C1 13.53 1 27.06 1 41 C4.47300725 42.15766908 7.61084947 42.17519557 11.2253418 42.20532227 C11.95729767 42.21522186 12.68925354 42.22512146 13.44338989 42.23532104 C15.86196665 42.26690011 18.28056304 42.29167923 20.69921875 42.31640625 C22.37645477 42.33697888 24.05368564 42.35797544 25.73091125 42.37937927 C30.14494659 42.43456801 34.55902846 42.48399139 38.97314453 42.53222656 C43.47758119 42.58246493 47.98195028 42.63813881 52.48632812 42.69335938 C61.32416102 42.80090183 70.16205259 42.90235551 79 43 C79 43.33 79 43.66 79 44 C52 44 25 44 -2 44 C-2.495 46.475 -2.495 46.475 -3 49 C-3.33 48.34 -3.66 47.68 -4 47 C-6.02463255 46.34786708 -6.02463255 46.34786708 -8 46 C-8 43.69 -8 41.38 -8 39 C-7.67 39.99 -7.34 40.98 -7 42 C-5.02 41.34 -3.04 40.68 -1 40 C-0.67 26.8 -0.34 13.6 0 0 Z " fill="#5CCBD4" transform="translate(46,172)"/>
<path d="M0 0 C0.66 0.66 1.32 1.32 2 2 C1.43152344 2.556875 0.86304688 3.11375 0.27734375 3.6875 C-4.10768061 8.02128034 -8.30725289 12.42274184 -12.3203125 17.1015625 C-14.51644482 19.58370275 -16.86660566 21.88226259 -19.23828125 24.1953125 C-21.76967315 26.78844567 -24.0461471 29.58211026 -26.32421875 32.3984375 C-28.2931367 34.28015395 -29.26138813 34.96362375 -32 35 C-34.140625 33.34765625 -34.140625 33.34765625 -36.25 31.0625 C-36.95640625 30.31097656 -37.6628125 29.55945313 -38.390625 28.78515625 C-38.92171875 28.19605469 -39.4528125 27.60695312 -40 27 C-39.01 26.67 -38.02 26.34 -37 26 C-35.2925002 27.28062485 -33.62626404 28.61767557 -32 30 C-31.01 30.33 -30.02 30.66 -29 31 C-29 30.34 -29 29.68 -29 29 C-27.34997172 27.64613064 -25.6825613 26.31321858 -24 25 C-23.67 24.34 -23.34 23.68 -23 23 C-22.34 23 -21.68 23 -21 23 C-20.7525 22.21625 -20.505 21.4325 -20.25 20.625 C-18.8175952 17.61694992 -17.9690761 17.24509643 -15 16 C-14.67 15.34 -14.34 14.68 -14 14 C-13.34 14 -12.68 14 -12 14 C-11.34 12.35 -10.68 10.7 -10 9 C-9.34 9 -8.68 9 -8 9 C-8 8.34 -8 7.68 -8 7 C-7.34 6.34 -6.68 5.68 -6 5 C-5.67 4.01 -5.34 3.02 -5 2 C-2.4375 0.8125 -2.4375 0.8125 0 0 Z " fill="#59BECD" transform="translate(180,120)"/>
<path d="M0 0 C0.66 0.33 1.32 0.66 2 1 C1.21496094 1.7734375 0.42992187 2.546875 -0.37890625 3.34375 C-6.14814556 9.05325682 -11.75094227 14.80263921 -17 21 C-17.57878906 21.639375 -18.15757812 22.27875 -18.75390625 22.9375 C-19.30949219 23.55625 -19.86507812 24.175 -20.4375 24.8125 C-20.93121094 25.35519531 -21.42492187 25.89789063 -21.93359375 26.45703125 C-23.28428001 28.09871647 -23.28428001 28.09871647 -23 31 C-24.875 30.6875 -24.875 30.6875 -27 30 C-27.66 29.01 -28.32 28.02 -29 27 C-28.236875 26.278125 -27.47375 25.55625 -26.6875 24.8125 C-23.996311 22.22747352 -23.996311 22.22747352 -22.625 19.5625 C-20.38841024 16.03556999 -17.48715119 13.30627499 -14 11 C-13.01 11 -12.02 11 -11 11 C-10.773125 10.38125 -10.54625 9.7625 -10.3125 9.125 C-8.61583557 6.3780195 -6.94748289 6.13364727 -4 5 C-3.67 4.01 -3.34 3.02 -3 2 C-2.01 1.34 -1.02 0.68 0 0 Z " fill="#78CCEE" transform="translate(165,115)"/>
<path d="M0 0 C0 3 0 3 -2.125 5.25 C-3.07375 6.1575 -4.0225 7.065 -5 8 C-5.99013644 9.15737129 -6.96897623 10.32448302 -7.9375 11.5 C-10.69547639 14.76976582 -13.66284432 17.33027545 -17 20 C-18.00412933 20.99585354 -19.00370595 21.99630773 -20 23 C-21.34270852 24.24167302 -22.69744724 25.47043426 -24.0625 26.6875 C-24.75472656 27.31011719 -25.44695312 27.93273437 -26.16015625 28.57421875 C-28 30 -28 30 -30 30 C-30.33 30.99 -30.66 31.98 -31 33 C-32.33333333 33.66666667 -33.66666667 34.33333333 -35 35 C-36.68662458 36.64646685 -38.35511706 38.31183067 -40 40 C-40.99 40.495 -40.99 40.495 -42 41 C-41.34 39.68 -40.68 38.36 -40 37 C-39.34 37 -38.68 37 -38 37 C-37.7525 36.443125 -37.505 35.88625 -37.25 35.3125 C-34.64827025 30.49929997 -31.26447031 27.34242267 -27 24 C-26.67 23.34 -26.34 22.68 -26 22 C-25.29875 21.608125 -24.5975 21.21625 -23.875 20.8125 C-20.65807967 18.78444153 -18.34022729 16.43208021 -15.7109375 13.7109375 C-13.61729956 11.61729956 -11.31638959 9.83948585 -9 8 C-8.67 7.34 -8.34 6.68 -8 6 C-6.33720673 4.9935725 -4.67016516 3.99414593 -3 3 C-1.24850835 1.41754725 -1.24850835 1.41754725 0 0 Z " fill="#ACD1F3" transform="translate(202,74)"/>
<path d="M0 0 C0.66 0.33 1.32 0.66 2 1 C1.01 1.33 0.02 1.66 -1 2 C-1 15.2 -1 28.4 -1 42 C-6.70683846 41.18473736 -9.95344878 40.36611546 -15 38.0625 C-21.57341027 35.07658708 -27.70349556 32.91085218 -34.9375 32.375 C-35.89527344 32.30023438 -36.85304688 32.22546875 -37.83984375 32.1484375 C-38.55269531 32.09945312 -39.26554687 32.05046875 -40 32 C-40.33 31.01 -40.66 30.02 -41 29 C-34.95248049 29.29074613 -29.08172279 30.26676605 -23.1875 31.625 C-21.94355469 31.90601563 -20.69960937 32.18703125 -19.41796875 32.4765625 C-13.30720001 34.58372413 -7.69125136 37.93548004 -2 41 C-2 27.8 -2 14.6 -2 1 C-1.34 0.67 -0.68 0.34 0 0 Z " fill="#4FB3C1" transform="translate(151,163)"/>
<path d="M0 0 C2.125 0.375 2.125 0.375 4 1 C4 1.99 4 2.98 4 4 C5.32 3.67 6.64 3.34 8 3 C5.93687686 6.66415876 3.64127824 9.70548128 0.8125 12.8125 C-0.26064453 13.99779297 -0.26064453 13.99779297 -1.35546875 15.20703125 C-2.16951172 16.09455078 -2.16951172 16.09455078 -3 17 C-4.921875 16.62890625 -4.921875 16.62890625 -7 16 C-8.25 13.9375 -8.25 13.9375 -9 12 C-7.37660195 10.29115995 -5.70680947 8.62553283 -4 7 C-3.34 7 -2.68 7 -2 7 C-2.04125 6.21625 -2.0825 5.4325 -2.125 4.625 C-2 2 -2 2 0 0 Z " fill="#B5CEEC" transform="translate(244,67)"/>
<path d="M0 0 C0.33 0 0.66 0 1 0 C1.96569075 8.53393453 2.15189224 16.97939296 2.125 25.5625 C2.12886719 26.83158203 2.13273437 28.10066406 2.13671875 29.40820312 C2.13542969 30.61541016 2.13414063 31.82261719 2.1328125 33.06640625 C2.13112061 34.7052478 2.13112061 34.7052478 2.12939453 36.37719727 C2 39 2 39 1 41 C1.99 41 2.98 41 4 41 C4.33 40.34 4.66 39.68 5 39 C4.855625 39.556875 4.71125 40.11375 4.5625 40.6875 C3.97230872 43.11384195 3.476571 45.54906345 3 48 C4.175625 48.433125 4.175625 48.433125 5.375 48.875 C8 50 8 50 10 52 C12.14550973 52.16706799 12.14550973 52.16706799 14.5 52 C16.90625 51.875 16.90625 51.875 19 52 C19.66 52.66 20.32 53.32 21 54 C7.7706422 54.3853211 7.7706422 54.3853211 3 52 C-0.74974638 46.37538043 -0.13370719 40.42903204 -0.09765625 33.88671875 C-0.0962413 32.91716751 -0.09482635 31.94761627 -0.09336853 30.94868469 C-0.08778513 27.86159133 -0.07523564 24.77457133 -0.0625 21.6875 C-0.05748286 19.59049584 -0.05292032 17.49349054 -0.04882812 15.39648438 C-0.03782112 10.26429479 -0.02056788 5.13215982 0 0 Z " fill="#58D5E9" transform="translate(58,148)"/>
<path d="M0 0 C0.495 1.485 0.495 1.485 1 3 C-0.4115461 3.0154612 -0.4115461 3.0154612 -1.85160828 3.03123474 C-10.72394879 3.12903039 -19.59622013 3.23177024 -28.46844769 3.33933926 C-33.02964089 3.39448165 -37.5908406 3.44788762 -42.15209961 3.49731445 C-46.55471579 3.54508627 -50.95725606 3.59743343 -55.35978127 3.65294075 C-57.03865478 3.67330632 -58.71754907 3.6920288 -60.39645958 3.70907402 C-62.7496528 3.73324678 -65.10270411 3.76328318 -67.45581055 3.79467773 C-68.49483017 3.80331093 -68.49483017 3.80331093 -69.55484009 3.81211853 C-73.15277562 3.8666085 -76.49841221 4.15904894 -80 5 C-80 5.99 -80 6.98 -80 8 C-83.52948291 9.66670026 -85.28272326 10.13583456 -89 9 C-87.39805929 8.01719585 -85.79336258 7.03888283 -84.1875 6.0625 C-83.29417969 5.51722656 -82.40085938 4.97195312 -81.48046875 4.41015625 C-77.16799108 1.95849572 -73.50614918 1.86169709 -68.68286133 1.88647461 C-67.94115189 1.88632858 -67.19944244 1.88618256 -66.43525696 1.8860321 C-63.98415195 1.88672866 -61.53312298 1.89450903 -59.08203125 1.90234375 C-57.38238059 1.90420884 -55.68272939 1.90563232 -53.983078 1.90663147 C-49.50980139 1.91044945 -45.03655724 1.92027362 -40.56329346 1.93133545 C-35.99858031 1.94156501 -31.43386193 1.9461324 -26.86914062 1.95117188 C-17.91274615 1.96189651 -8.95637578 1.97896433 0 2 C0 1.34 0 0.68 0 0 Z " fill="#60C4C9" transform="translate(261,213)"/>
<path d="M0 0 C1.32 0.33 2.64 0.66 4 1 C2.80375 1.515625 1.6075 2.03125 0.375 2.5625 C-2.66598213 3.89685782 -5.63616792 5.3142646 -8.57421875 6.859375 C-9.19151855 7.18091553 -9.80881836 7.50245605 -10.44482422 7.83374023 C-11.6770192 8.47947483 -12.90410354 9.13506972 -14.12548828 9.80102539 C-18.46980427 12.06595327 -18.46980427 12.06595327 -21.41796875 11.69921875 C-21.94003906 11.46847656 -22.46210937 11.23773438 -23 11 C-24.15837626 6.94568308 -23.83691257 4.78187881 -22 1 C-21.896875 1.639375 -21.79375 2.27875 -21.6875 2.9375 C-21.460625 3.618125 -21.23375 4.29875 -21 5 C-20.01 5.33 -19.02 5.66 -18 6 C-17.67 4.35 -17.34 2.7 -17 1 C-16.01 1.33 -15.02 1.66 -14 2 C-14.33 3.32 -14.66 4.64 -15 6 C-14.2575 5.67 -13.515 5.34 -12.75 5 C-10 4 -10 4 -6 4 C-6 3.34 -6 2.68 -6 2 C-4.02 2 -2.04 2 0 2 C0 1.34 0 0.68 0 0 Z " fill="#61C0D3" transform="translate(135,161)"/>
<path d="M0 0 C1.2065625 0.0309375 1.2065625 0.0309375 2.4375 0.0625 C1.4475 0.3925 0.4575 0.7225 -0.5625 1.0625 C-1.25821879 4.5430507 -1.25821879 4.5430507 -1.5625 8.0625 C-0.9025 8.3925 -0.2425 8.7225 0.4375 9.0625 C-3.87019231 13.98557692 -3.87019231 13.98557692 -7.375 14.375 C-8.096875 14.271875 -8.81875 14.16875 -9.5625 14.0625 C-9.8925 15.7125 -10.2225 17.3625 -10.5625 19.0625 C-11.2225 19.0625 -11.8825 19.0625 -12.5625 19.0625 C-11.61964286 9.63392857 -11.61964286 9.63392857 -9.5625 7.0625 C-6.9375 6.3125 -6.9375 6.3125 -4.5625 6.0625 C-4.418125 5.258125 -4.27375 4.45375 -4.125 3.625 C-3.347189 0.08163876 -3.347189 0.08163876 0 0 Z M1.4375 3.0625 C2.4275 3.3925 3.4175 3.7225 4.4375 4.0625 C3.7775 4.0625 3.1175 4.0625 2.4375 4.0625 C1.7775 5.3825 1.1175 6.7025 0.4375 8.0625 C0.7675 6.4125 1.0975 4.7625 1.4375 3.0625 Z " fill="#75D6F3" transform="translate(127.5625,147.9375)"/>
<path d="M0 0 C0.33 0 0.66 0 1 0 C1 15.51 1 31.02 1 47 C0.67 47 0.34 47 0 47 C-1.63970903 33.35257562 -0.65307058 19.68634526 0 6 C-0.6496875 6.7115625 -0.6496875 6.7115625 -1.3125 7.4375 C-3 9 -3 9 -6 10 C-7.37195574 11.29355827 -8.71182656 12.62298702 -10 14 C-9.46147924 9.88416276 -7.25615375 7.7329259 -4.5 4.75 C-3.6853125 3.85796875 -2.870625 2.9659375 -2.03125 2.046875 C-1.3609375 1.37140625 -0.690625 0.6959375 0 0 Z " fill="#B4D0F1" transform="translate(252,82)"/>
<path d="M0 0 C1.32 0.33 2.64 0.66 4 1 C-4.06875339 7.79358255 -10.6020442 10.22302103 -21.1875 10.375 C-22.20360352 10.39602783 -22.20360352 10.39602783 -23.24023438 10.41748047 C-27.87625794 10.37312205 -31.02309038 9.33790332 -35 7 C-32.71591749 6.23863916 -31.25576584 5.94734233 -28.875 6.4375 C-22.11512191 7.76008484 -15.6268396 7.19606071 -9.0078125 5.4375 C-7 5 -7 5 -3 5 C-3 4.01 -3 3.02 -3 2 C-2.01 2 -1.02 2 0 2 C0 1.34 0 0.68 0 0 Z " fill="#6BDAD7" transform="translate(175,231)"/>
<path d="M0 0 C0 3.63320695 -0.73946263 4.25506176 -3 7 C-3.61875 7.804375 -4.2375 8.60875 -4.875 9.4375 C-7.99934151 13.20508829 -11.33098781 16.49736277 -15.1875 19.5 C-18.09833461 22.08740854 -18.65009777 23.4902542 -20 27 C-22.5 29.1875 -22.5 29.1875 -25 31 C-25.66 31.66 -26.32 32.32 -27 33 C-26.47189523 29.08660822 -25.54980164 27.01570491 -22.875 24.125 C-22.24335938 23.43664062 -21.61171875 22.74828125 -20.9609375 22.0390625 C-18.59815288 19.58214303 -16.18973377 17.17736187 -13.7578125 14.7890625 C-11.26494528 12.25187764 -8.96588705 9.56058904 -6.64453125 6.8671875 C-4.52869105 4.46487962 -2.2975339 2.22791166 0 0 Z " fill="#A5BED8" transform="translate(179,77)"/>
<path d="M0 0 C0.66 0 1.32 0 2 0 C2 15.84 2 31.68 2 48 C1.67 48 1.34 48 1 48 C1 34.14 1 20.28 1 6 C-1.31 6.33 -3.62 6.66 -6 7 C-5.04882866 5.8274869 -4.08882991 4.66212985 -3.125 3.5 C-2.59132812 2.8503125 -2.05765625 2.200625 -1.5078125 1.53125 C-0.76144531 0.77328125 -0.76144531 0.77328125 0 0 Z " fill="#66C1D6" transform="translate(159,156)"/>
<path d="M0 0 C0.66 0.33 1.32 0.66 2 1 C-0.28356246 3.34138543 -2.57813374 5.67166982 -4.875 8 C-5.52597656 8.66773437 -6.17695313 9.33546875 -6.84765625 10.0234375 C-7.47285156 10.65507813 -8.09804687 11.28671875 -8.7421875 11.9375 C-9.3182373 12.52402344 -9.89428711 13.11054687 -10.48779297 13.71484375 C-12 15 -12 15 -14 15 C-14 15.66 -14 16.32 -14 17 C-15.32 16.67 -16.64 16.34 -18 16 C-14.375 11.125 -14.375 11.125 -11 10 C-9.31066078 8.3563186 -7.64740076 6.6857124 -6 5 C-4.03326663 3.28838535 -2.02254103 1.64625433 0 0 Z " fill="#97CBEE" transform="translate(182,96)"/>
<path d="M0 0 C1.65 0 3.3 0 5 0 C4 3 4 3 2 4 C0.58026727 4.08934406 -0.84357791 4.11758978 -2.26611328 4.11352539 C-3.58725632 4.11341209 -3.58725632 4.11341209 -4.93508911 4.11329651 C-5.88721283 4.10813522 -6.83933655 4.10297394 -7.8203125 4.09765625 C-8.79410858 4.0962413 -9.76790466 4.09482635 -10.77120972 4.09336853 C-13.88917073 4.08775973 -17.0070606 4.07520573 -20.125 4.0625 C-22.23567605 4.05748613 -24.34635322 4.05292303 -26.45703125 4.04882812 C-31.63804521 4.03778745 -36.81901752 4.02104073 -42 4 C-42 3.67 -42 3.34 -42 3 C-28.14 3 -14.28 3 0 3 C0 2.01 0 1.02 0 0 Z " fill="#55D1DD" transform="translate(245,198)"/>
<path d="M0 0 C0.66 0.66 1.32 1.32 2 2 C1.09507812 2.88751953 1.09507812 2.88751953 0.171875 3.79296875 C-4.8320919 8.71955805 -4.8320919 8.71955805 -9.375 14.0625 C-9.91125 14.701875 -10.4475 15.34125 -11 16 C-11.99 16 -12.98 16 -14 16 C-14 15.34 -14 14.68 -14 14 C-13.34 14 -12.68 14 -12 14 C-11.34 12.35 -10.68 10.7 -10 9 C-9.34 9 -8.68 9 -8 9 C-8 8.34 -8 7.68 -8 7 C-7.34 6.34 -6.68 5.68 -6 5 C-5.67 4.01 -5.34 3.02 -5 2 C-2.4375 0.8125 -2.4375 0.8125 0 0 Z " fill="#66BED3" transform="translate(180,120)"/>
<path d="M0 0 C0.66 0.33 1.32 0.66 2 1 C-0.57815923 3.77568672 -3.16341009 6.5446698 -5.75 9.3125 C-6.84441406 10.49102539 -6.84441406 10.49102539 -7.9609375 11.69335938 C-8.66992188 12.45068359 -9.37890625 13.20800781 -10.109375 13.98828125 C-10.75874023 14.68477783 -11.40810547 15.38127441 -12.07714844 16.09887695 C-13.94234736 17.94299884 -15.86497372 19.48180524 -18 21 C-17.29772585 17.83976631 -16.48261414 14.88719595 -15 12 C-13.0625 11.25 -13.0625 11.25 -11 11 C-10.01 10.67 -9.02 10.34 -8 10 C-8 9.01 -8 8.02 -8 7 C-6.25 5.17578125 -6.25 5.17578125 -4 3.3125 C-3.2575 2.68988281 -2.515 2.06726563 -1.75 1.42578125 C-0.88375 0.72001953 -0.88375 0.72001953 0 0 Z " fill="#A5BFD9" transform="translate(223,75)"/>
<path d="M0 0 C0.66 0.33 1.32 0.66 2 1 C1.45730469 1.53109375 0.91460937 2.0621875 0.35546875 2.609375 C-0.71767578 3.66898438 -0.71767578 3.66898438 -1.8125 4.75 C-2.87404297 5.79414063 -2.87404297 5.79414063 -3.95703125 6.859375 C-7.94153686 10.78673809 -7.94153686 10.78673809 -9 16 C-10.875 15.6875 -10.875 15.6875 -13 15 C-13.66 14.01 -14.32 13.02 -15 12 C-14.0925 11.4225 -13.185 10.845 -12.25 10.25 C-9.02981424 8.16397832 -9.02981424 8.16397832 -6.75 5.75 C-6.1725 5.1725 -5.595 4.595 -5 4 C-4.34 4 -3.68 4 -3 4 C-2.67 3.01 -2.34 2.02 -2 1 C-1.34 0.67 -0.68 0.34 0 0 Z " fill="#63C8E2" transform="translate(151,130)"/>
<path d="M0 0 C7.48291572 6.15034169 7.48291572 6.15034169 10 10 C9.01 10.495 9.01 10.495 8 11 C8 10.34 8 9.68 8 9 C6.68 9 5.36 9 4 9 C4 8.34 4 7.68 4 7 C3.01 7.33 2.02 7.66 1 8 C0.67 7.67 0.34 7.34 0 7 C-0.33 7.99 -0.66 8.98 -1 10 C-3.0625 11.1875 -3.0625 11.1875 -5 12 C-4.55090939 10.51800098 -4.09043436 9.03944764 -3.625 7.5625 C-3.36976562 6.73878906 -3.11453125 5.91507813 -2.8515625 5.06640625 C-2 3 -2 3 0 2 C0 1.34 0 0.68 0 0 Z " fill="#70C4DF" transform="translate(129,146)"/>
<path d="M0 0 C0.598125 0.20625 1.19625 0.4125 1.8125 0.625 C0.59687378 1.35251465 0.59687378 1.35251465 -0.64331055 2.09472656 C-3.56900713 5.0044204 -3.79904631 6.67079634 -3.90644836 10.71942139 C-3.90054939 11.90244843 -3.90054939 11.90244843 -3.89453125 13.109375 C-3.90965256 13.92496887 -3.92477386 14.74056274 -3.94035339 15.58087158 C-3.98325215 18.17919513 -3.99206998 20.77635751 -4 23.375 C-4.02314278 25.13935383 -4.04850767 26.90368002 -4.07617188 28.66796875 C-4.13904517 32.9870819 -4.17136346 37.30546959 -4.1875 41.625 C-4.5175 41.625 -4.8475 41.625 -5.1875 41.625 C-5.26152368 35.96503584 -5.31604173 30.30535189 -5.35229492 24.64501953 C-5.36740395 22.71853733 -5.38789214 20.79208965 -5.41381836 18.86572266 C-5.45010925 16.10049943 -5.46720479 13.33572996 -5.48046875 10.5703125 C-5.49595261 9.7056839 -5.51143646 8.8410553 -5.52738953 7.95022583 C-5.52807617 5.52392578 -5.52807617 5.52392578 -5.1875 1.625 C-2.1875 -0.375 -2.1875 -0.375 0 0 Z " fill="#66D5E9" transform="translate(155.1875,163.375)"/>
<path d="M0 0 C0 3 0 3 -1.50390625 4.76171875 C-2.18324219 5.39722656 -2.86257812 6.03273438 -3.5625 6.6875 C-6.38967565 9.40497924 -9.07131992 12.14856304 -11.625 15.125 C-14.60228124 18.5882283 -17.73136373 21.81108657 -21 25 C-21.66 24.67 -22.32 24.34 -23 24 C-22.35933594 23.3709375 -21.71867188 22.741875 -21.05859375 22.09375 C-16.39155734 17.47540101 -11.87406725 12.8166059 -7.60546875 7.828125 C-5.19609709 5.0846069 -2.61287791 2.54914918 0 0 Z " fill="#101D2F" transform="translate(216,85)"/>
<path d="M0 0 C2.69540315 -0.26686213 5.15847464 -0.34818073 7.8515625 -0.29296875 C8.62559418 -0.28872391 9.39962585 -0.28447906 10.19711304 -0.28010559 C12.67342677 -0.26328998 15.14893158 -0.22563395 17.625 -0.1875 C19.30207159 -0.17245682 20.97915592 -0.15876778 22.65625 -0.14648438 C26.77114581 -0.11337721 30.88543569 -0.06157637 35 0 C33 2 33 2 30.12670898 2.21118164 C28.92860596 2.19434326 27.73050293 2.17750488 26.49609375 2.16015625 C25.19865234 2.14919922 23.90121094 2.13824219 22.56445312 2.12695312 C21.18879158 2.10615196 19.81314034 2.08465905 18.4375 2.0625 C15.7486895 2.02623716 13.06005584 1.99806166 10.37109375 1.97265625 C9.17411865 1.95468994 7.97714355 1.93672363 6.74389648 1.91821289 C4.0879173 1.68350752 4.0879173 1.68350752 3 3 C1.33382885 3.04063832 -0.33388095 3.042721 -2 3 C-1.34 2.01 -0.68 1.02 0 0 Z " fill="#D7DEE9" transform="translate(66,30)"/>
<path d="M0 0 C0.66 0 1.32 0 2 0 C2 0.99 2 1.98 2 3 C0.68 3 -0.64 3 -2 3 C-2 3.66 -2 4.32 -2 5 C-5.37097383 6.49821059 -7.20442119 7 -11 7 C-10.67 5.35 -10.34 3.7 -10 2 C-6.80285048 0.93428349 -4.34084942 1 -1 1 C-0.67 0.67 -0.34 0.34 0 0 Z " fill="#4DDAEA" transform="translate(131,160)"/>
<path d="M0 0 C0.33 0 0.66 0 1 0 C1.21703874 5.21387121 1.41389953 10.42796516 1.59204102 15.64331055 C1.65549567 17.41760649 1.72447439 19.19171379 1.79907227 20.96557617 C1.90530786 23.51451748 1.9916993 26.06347571 2.07421875 28.61328125 C2.11157639 29.40712723 2.14893402 30.20097321 2.18742371 31.01887512 C2.2487793 33.26293945 2.2487793 33.26293945 2 37 C1.01 37.99 0.02 38.98 -1 40 C-0.67 26.8 -0.34 13.6 0 0 Z " fill="#58CCDD" transform="translate(251,158)"/>
<path d="M0 0 C2.47455747 2.36696801 3.91162332 3.78327918 4.16796875 7.3125 C4.17441406 8.199375 4.18085938 9.08625 4.1875 10 C4.20167969 10.886875 4.21585938 11.77375 4.23046875 12.6875 C4 15 4 15 2 17 C0.36622867 15.36622867 0.68238235 13.37221115 0.5 11.125 C0.25720584 8.15077151 -0.05025071 5.84924786 -1 3 C-0.67 2.01 -0.34 1.02 0 0 Z " fill="#B2C3D6" transform="translate(251,51)"/>
<path d="M0 0 C3.78527521 0.51152368 5.44108688 1.20845842 8 4 C8.99 4.33 9.98 4.66 11 5 C11 4.34 11 3.68 11 3 C11.66 3 12.32 3 13 3 C13.33 3.99 13.66 4.98 14 6 C12.75 7.5625 12.75 7.5625 11 9 C7.4046317 8.63297282 5.69659123 7.05114641 3.25 4.5 C2.63640625 3.8709375 2.0228125 3.241875 1.390625 2.59375 C0 1 0 1 0 0 Z " fill="#54B6C5" transform="translate(140,146)"/>
<path d="M0 0 C1.2065625 0.0309375 1.2065625 0.0309375 2.4375 0.0625 C1.4475 0.3925 0.4575 0.7225 -0.5625 1.0625 C-1.66886395 3.45318734 -1.66886395 3.45318734 -2.5625 6.0625 C-4.69802597 9.26578895 -6.29482126 10.18358473 -9.5625 12.0625 C-10.2225 12.7225 -10.8825 13.3825 -11.5625 14.0625 C-10.98665568 11.67685923 -10.34022405 9.39567216 -9.5625 7.0625 C-7.9125 6.7325 -6.2625 6.4025 -4.5625 6.0625 C-4.418125 5.258125 -4.27375 4.45375 -4.125 3.625 C-3.347189 0.08163876 -3.347189 0.08163876 0 0 Z " fill="#88D3F5" transform="translate(127.5625,147.9375)"/>
<path d="M0 0 C0.33 0 0.66 0 1 0 C1.36585366 4.51219512 1.36585366 4.51219512 -0.3125 6.75 C-2 8 -2 8 -5 9 C-6.37195574 10.29355827 -7.71182656 11.62298702 -9 13 C-8.42993865 9.11645706 -6.61062485 7.10304001 -4 4.25 C-3.278125 3.45078125 -2.55625 2.6515625 -1.8125 1.828125 C-1.214375 1.22484375 -0.61625 0.6215625 0 0 Z " fill="#A8BFDB" transform="translate(251,83)"/>
<path d="M0 0 C0.33 0 0.66 0 1 0 C0.77756455 5.5608863 -0.46312785 8.11622061 -4.33203125 11.8359375 C-6.20212824 13.14106374 -7.7726709 13.58448958 -10 14 C-10 13.34 -10 12.68 -10 12 C-9.34 12 -8.68 12 -8 12 C-7.67 11.01 -7.34 10.02 -7 9 C-6.34 9 -5.68 9 -5 9 C-4.67 7.68 -4.34 6.36 -4 5 C-2.68 4.67 -1.36 4.34 0 4 C0 2.68 0 1.36 0 0 Z " fill="#5EC8CC" transform="translate(273,212)"/>
<path d="M0 0 C0.33 0.99 0.66 1.98 1 3 C4.465 2.505 4.465 2.505 8 2 C8 2.99 8 3.98 8 5 C7.34 5 6.68 5 6 5 C5.67 6.65 5.34 8.3 5 10 C4.67 9.34 4.34 8.68 4 8 C1.97536745 7.34786708 1.97536745 7.34786708 0 7 C0 4.69 0 2.38 0 0 Z " fill="#4BE1E5" transform="translate(38,211)"/>
<path d="M0 0 C0 0.99 0 1.98 0 3 C-6.59874523 8.02761541 -12.95127124 7.40187827 -21 7 C-21 6.67 -21 6.34 -21 6 C-20.29875 5.98582031 -19.5975 5.97164062 -18.875 5.95703125 C-12.6720234 5.64519683 -8.59457274 4.75443696 -3.55859375 1.05859375 C-2 0 -2 0 0 0 Z " fill="#5DB7B9" transform="translate(172,223)"/>
<path d="M0 0 C2.31 0.33 4.62 0.66 7 1 C6.67 1.99 6.34 2.98 6 4 C7.11375 4.2475 8.2275 4.495 9.375 4.75 C13 6 13 6 14.4375 8.125 C14.7159375 9.053125 14.7159375 9.053125 15 10 C10.50202887 8.31326082 6.27113698 6.18326108 2 4 C2 3.01 2 2.02 2 1 C1.34 0.67 0.68 0.34 0 0 Z " fill="#58C7D1" transform="translate(127,204)"/>
<path d="M0 0 C5.40188823 1.5236095 10.314996 3.92269211 15 7 C15.33 7.66 15.66 8.32 16 9 C11.59780431 8.33300065 7.99144754 6.91896516 4 5 C3.67 4.34 3.34 3.68 3 3 C2.01 2.67 1.02 2.34 0 2 C0 1.34 0 0.68 0 0 Z " fill="#57B9C2" transform="translate(132,196)"/>
<path d="M0 0 C0.33 0.99 0.66 1.98 1 3 C0.01 3.33 -0.98 3.66 -2 4 C-2 5.65 -2 7.3 -2 9 C-1.01 9.33 -0.02 9.66 1 10 C1 10.66 1 11.32 1 12 C-3.875 11.125 -3.875 11.125 -5 10 C-5.375 7.75 -5.375 7.75 -5 5 C-2.5 2.1875 -2.5 2.1875 0 0 Z " fill="#85A0BA" transform="translate(212,101)"/>
<path d="M0 0 C1.32 0.33 2.64 0.66 4 1 C-2 3.66666667 -8 6.33333333 -14 9 C-14 8.01 -14 7.02 -14 6 C-10.91190305 4.23537317 -9.76687864 4 -6 4 C-6 3.34 -6 2.68 -6 2 C-4.02 2 -2.04 2 0 2 C0 1.34 0 0.68 0 0 Z " fill="#59B4C1" transform="translate(135,161)"/>
<path d="M0 0 C1.47968324 0.14049518 2.95874516 0.28754826 4.4375 0.4375 C5.67306641 0.55931641 5.67306641 0.55931641 6.93359375 0.68359375 C9 1 9 1 10 2 C12.01594582 2.23427778 14.038474 2.41336124 16.0625 2.5625 C17.16722656 2.64628906 18.27195313 2.73007813 19.41015625 2.81640625 C20.26480469 2.87699219 21.11945313 2.93757812 22 3 C22 3.33 22 3.66 22 4 C19.45767658 4.08152344 16.91800798 4.14073716 14.375 4.1875 C13.30572266 4.22520508 13.30572266 4.22520508 12.21484375 4.26367188 C7.37723584 4.33024446 4.25261662 3.55559453 0 1 C0 0.67 0 0.34 0 0 Z " fill="#66B8B7" transform="translate(140,237)"/>
<path d="M0 0 C4.62 0 9.24 0 14 0 C14 0.33 14 0.66 14 1 C13.20335937 1.10957031 12.40671875 1.21914062 11.5859375 1.33203125 C5.8527586 2.18991568 0.97419107 2.96021657 -4 6 C-4 5.01 -4 4.02 -4 3 C-3.01 3 -2.02 3 -1 3 C-0.67 2.01 -0.34 1.02 0 0 Z " fill="#67CECE" transform="translate(184,225)"/>
<path d="M0 0 C0.66 0.33 1.32 0.66 2 1 C0.61559342 2.63474589 -0.78303245 4.25745662 -2.1875 5.875 C-2.96480469 6.77992187 -3.74210938 7.68484375 -4.54296875 8.6171875 C-6.99573203 10.99586095 -8.77053123 12.00190486 -12 13 C-8.19524578 8.43969176 -4.25030379 4.14910608 0 0 Z " fill="#B7C0CD" transform="translate(215,39)"/>
<path d="M0 0 C6.14689273 0.36881356 8.69027374 1.90050429 13 6 C12.34 6.66 11.68 7.32 11 8 C9.16399255 6.85845641 7.33125195 5.71165684 5.5 4.5625 C4.4790625 3.92441406 3.458125 3.28632813 2.40625 2.62890625 C1.6121875 2.09136719 0.818125 1.55382812 0 1 C0 0.67 0 0.34 0 0 Z " fill="#64C4C6" transform="translate(124,227)"/>
<path d="M0 0 C0 3.63320695 -0.73946263 4.25506176 -3 7 C-3.721875 7.9075 -4.44375 8.815 -5.1875 9.75 C-5.785625 10.4925 -6.38375 11.235 -7 12 C-8.32 11.67 -9.64 11.34 -11 11 C-7.37 7.37 -3.74 3.74 0 0 Z " fill="#A0B2C9" transform="translate(179,77)"/>
<path d="M0 0 C1.32 0.33 2.64 0.66 4 1 C4 1.66 4 2.32 4 3 C6.33214148 4.20628008 8.49642139 5.1654738 11 6 C11 6.66 11 7.32 11 8 C6.60357652 7.4975516 4.2051018 6.02704059 1 3 C0.67 2.01 0.34 1.02 0 0 Z " fill="#5DC4C8" transform="translate(38,218)"/>
<path d="M0 0 C0.99 0.33 1.98 0.66 3 1 C2.34 1 1.68 1 1 1 C0.34 2.32 -0.32 3.64 -1 5 C-0.67 3.35 -0.34 1.7 0 0 Z M-3 5 C-2.34 5.33 -1.68 5.66 -1 6 C-3.25 8.5 -3.25 8.5 -6 11 C-7.32 11 -8.64 11 -10 11 C-10 10.34 -10 9.68 -10 9 C-4.7265625 5.77734375 -4.7265625 5.77734375 -3 5 Z " fill="#61D5F1" transform="translate(129,151)"/>
<path d="M0 0 C1.32 0.33 2.64 0.66 4 1 C2.73299277 1.9841125 1.4612381 2.96211497 0.1875 3.9375 C-0.87404297 4.75541016 -0.87404297 4.75541016 -1.95703125 5.58984375 C-4 7 -4 7 -7 8 C-7 7.01 -7 6.02 -7 5 C-5.68 5 -4.36 5 -3 5 C-3 4.01 -3 3.02 -3 2 C-2.01 2 -1.02 2 0 2 C0 1.34 0 0.68 0 0 Z " fill="#65C4C2" transform="translate(175,231)"/>
<path d="M0 0 C0.99 0.33 1.98 0.66 3 1 C0.03 4.3 -2.94 7.6 -6 11 C-6.33 10.01 -6.66 9.02 -7 8 C-6.34 7.01 -5.68 6.02 -5 5 C-4.34 5 -3.68 5 -3 5 C-2.67 4.01 -2.34 3.02 -2 2 C-1.34 2 -0.68 2 0 2 C0 1.34 0 0.68 0 0 Z " fill="#7EB8CD" transform="translate(190,109)"/>
<path d="M0 0 C0.66 0.33 1.32 0.66 2 1 C0.92807816 2.3218362 -0.15802695 3.63217927 -1.25 4.9375 C-1.85328125 5.66839844 -2.4565625 6.39929688 -3.078125 7.15234375 C-5.10741134 9.10326334 -6.254407 9.61731779 -9 10 C-8.06409496 8.8944811 -7.12620142 7.79064547 -6.1875 6.6875 C-5.66542969 6.07261719 -5.14335937 5.45773438 -4.60546875 4.82421875 C-3.12827531 3.14575321 -1.59960869 1.56117966 0 0 Z " fill="#B2D3F1" transform="translate(188,86)"/>
<path d="M0 0 C-5.94 3.465 -5.94 3.465 -12 7 C-12 4 -12 4 -11 2 C-9.2578125 1.11328125 -9.2578125 1.11328125 -7.125 0.3125 C-6.07699219 -0.09548828 -6.07699219 -0.09548828 -5.0078125 -0.51171875 C-3 -1 -3 -1 0 0 Z " fill="#59C0C7" transform="translate(177,210)"/>
<path d="M0 0 C0.33 0.99 0.66 1.98 1 3 C-0.49739583 4.23697917 -1.99479167 5.47395833 -3.4921875 6.7109375 C-4.71051161 7.75250992 -5.86660097 8.86660097 -7 10 C-6.45276317 6.62537285 -5.9451 4.91765 -4 2 C-1.875 0.8125 -1.875 0.8125 0 0 Z " fill="#ACCCE7" transform="translate(159,100)"/>
<path d="M0 0 C0.33 1.32 0.66 2.64 1 4 C-1.64 6.31 -4.28 8.62 -7 11 C-7.66 10.67 -8.32 10.34 -9 10 C-6.03 6.7 -3.06 3.4 0 0 Z " fill="#B7C7D9" transform="translate(192,63)"/>
<path d="M0 0 C0.66 0.33 1.32 0.66 2 1 C1.53980469 1.39832031 1.07960938 1.79664063 0.60546875 2.20703125 C-1.2674322 4.29866516 -1.87389302 6.01421992 -2.6875 8.6875 C-2.93886719 9.49574219 -3.19023438 10.30398437 -3.44921875 11.13671875 C-3.63097656 11.75160156 -3.81273437 12.36648437 -4 13 C-4.33 13 -4.66 13 -5 13 C-4.64989059 4.80743982 -4.64989059 4.80743982 -1.9375 1.4375 C-1.298125 0.963125 -0.65875 0.48875 0 0 Z " fill="#C3D1E3" transform="translate(42,52)"/>
<path d="M0 0 C0 0.99 0 1.98 0 3 C-3.08809695 4.76462683 -4.23312136 5 -8 5 C-8.33 5.66 -8.66 6.32 -9 7 C-9.66 6.34 -10.32 5.68 -11 5 C-9.54462432 4.16151196 -8.08559627 3.32936066 -6.625 2.5 C-5.81289062 2.0359375 -5.00078125 1.571875 -4.1640625 1.09375 C-2 0 -2 0 0 0 Z " fill="#53BCC7" transform="translate(172,199)"/>
<path d="M0 0 C1.32 0 2.64 0 4 0 C3.82374165 2.37948772 3.30280227 3.70225849 1.59765625 5.37890625 C0.09350908 6.62115486 -1.45129851 7.81376056 -3 9 C-2.30058404 5.85262818 -1.23921302 2.97411124 0 0 Z " fill="#98BDD7" transform="translate(208,87)"/>
<path d="M0 0 C4.29 0.66 8.58 1.32 13 2 C13 2.33 13 2.66 13 3 C4.57142857 4.28571429 4.57142857 4.28571429 0 3 C0 2.01 0 1.02 0 0 Z " fill="#66D5D5" transform="translate(146,228)"/>
<path d="M0 0 C2.475 0.99 2.475 0.99 5 2 C4.67 2.99 4.34 3.98 4 5 C2.35 5.33 0.7 5.66 -1 6 C-1 3 -1 3 0 0 Z " fill="#5DD7D4" transform="translate(141,225)"/>
<path d="M0 0 C0.33 0 0.66 0 1 0 C1.42589023 5.53657294 -0.094753 9.89665983 -2 15 C-2.66 14.67 -3.32 14.34 -4 14 C-3.00956295 9.16371695 -2.04301154 4.52381127 0 0 Z " fill="#85BCD5" transform="translate(117,152)"/>
<path d="M0 0 C1.98 1.65 3.96 3.3 6 5 C5.34 5.66 4.68 6.32 4 7 C4 6.34 4 5.68 4 5 C2.68 5 1.36 5 0 5 C0 4.34 0 3.68 0 3 C-0.99 3.33 -1.98 3.66 -3 4 C-3 3.34 -3 2.68 -3 2 C-2.01 2 -1.02 2 0 2 C0 1.34 0 0.68 0 0 Z " fill="#5BBECF" transform="translate(133,150)"/>
<path d="M0 0 C1.32 0.66 2.64 1.32 4 2 C3.34 3.32 2.68 4.64 2 6 C1.34 6 0.68 6 0 6 C0 6.66 0 7.32 0 8 C-0.66 8 -1.32 8 -2 8 C-1.34 5.36 -0.68 2.72 0 0 Z " fill="#7BA2BB" transform="translate(121,140)"/>
<path d="M0 0 C1.32 0.33 2.64 0.66 4 1 C3.34 2.65 2.68 4.3 2 6 C0.68 5.34 -0.64 4.68 -2 4 C-1.34 2.68 -0.68 1.36 0 0 Z " fill="#AAD4F4" transform="translate(134,135)"/>
<path d="M0 0 C0.66 0.66 1.32 1.32 2 2 C1.01 2.33 0.02 2.66 -1 3 C-2.20882096 5.00016466 -2.20882096 5.00016466 -3 7 C-3.99 7 -4.98 7 -6 7 C-4.60667426 3.63279613 -3.0210714 2.0140476 0 0 Z " fill="#B2CDEC" transform="translate(228,86)"/>
<path d="M0 0 C0.66 0.33 1.32 0.66 2 1 C0.02 3.31 -1.96 5.62 -4 8 C-4.66 7.67 -5.32 7.34 -6 7 C-6 6.34 -6 5.68 -6 5 C-4.04072937 3.2856382 -2.04119788 1.61594832 0 0 Z " fill="#ABBED9" transform="translate(250,70)"/>
<path d="M0 0 C4.75 0.75 4.75 0.75 7 3 C6.67 4.32 6.34 5.64 6 7 C4.02 4.69 2.04 2.38 0 0 Z " fill="#A1AEC3" transform="translate(238,49)"/>
<path d="M0 0 C0.99 0.66 1.98 1.32 3 2 C0.03 4.475 0.03 4.475 -3 7 C-3.33 5.68 -3.66 4.36 -4 3 C-2.68 2.67 -1.36 2.34 0 2 C0 1.34 0 0.68 0 0 Z " fill="#9AB2D1" transform="translate(237,83)"/>
<path d="M0 0 C0.33 0.66 0.66 1.32 1 2 C0.0625 4.125 0.0625 4.125 -1 6 C-1.66 6 -2.32 6 -3 6 C-3 6.66 -3 7.32 -3 8 C-3.66 8 -4.32 8 -5 8 C-4.45773019 4.20411134 -2.79872437 2.52788007 0 0 Z " fill="#89B6D3" transform="translate(132,127)"/>
<path d="M0 0 C0.99 0.99 1.98 1.98 3 3 C1.35 4.65 -0.3 6.3 -2 8 C-1.125 1.125 -1.125 1.125 0 0 Z " fill="#0F182C" transform="translate(154,98)"/>
<path d="M0 0 C1.32 0.33 2.64 0.66 4 1 C2.25 4.875 2.25 4.875 0 6 C0 5.34 0 4.68 0 4 C-0.66 4 -1.32 4 -2 4 C-1.34 2.68 -0.68 1.36 0 0 Z " fill="#A6BFDA" transform="translate(244,67)"/>
<path d="M0 0 C0.33 0.99 0.66 1.98 1 3 C0.01 4.485 0.01 4.485 -1 6 C-3.625 6.1875 -3.625 6.1875 -6 6 C-4 4 -2 2 0 0 Z " fill="#041226" transform="translate(155,150)"/>
<path d="M0 0 C0.99 0.33 1.98 0.66 3 1 C1.35 2.65 -0.3 4.3 -2 6 C-2 2 -2 2 0 0 Z " fill="#91B2D2" transform="translate(224,97)"/>
<path d="M0 0 C0.99 0.33 1.98 0.66 3 1 C1.875 2.5625 1.875 2.5625 0 4 C-3.1875 3.6875 -3.1875 3.6875 -6 3 C-4 2 -2 1 0 0 Z " fill="#D4DDEC" transform="translate(125,41)"/>
</svg>
